Bevan-IN.ufo
<glyph name="dollar" format="1">
  <advance width="1294"/>
  <unicode hex="0024"/>
  <outline>
    <contour>
      <point x="58" y="545" type="line"/>
      <point x="58" y="66" type="line"/>
      <point x="253" y="66" type="line"/>
      <point x="297" y="128" type="line"/>
      <point x="372" y="93"/>
      <point x="456" y="66"/>
      <point x="549" y="47" type="curve"/>
      <point x="549" y="-167" type="line"/>
      <point x="780" y="-167" type="line"/>
      <point x="780" y="34" type="line"/>
      <point x="867" y="38"/>
      <point x="948" y="62"/>
      <point x="1022" y="106" type="curve" smooth="yes"/>
      <point x="1096" y="150"/>
      <point x="1154" y="208"/>
      <point x="1197" y="281" type="curve" smooth="yes"/>
      <point x="1240" y="354"/>
      <point x="1260" y="433"/>
      <point x="1258" y="518" type="curve" smooth="yes"/>
      <point x="1257" y="575"/>
      <point x="1247" y="626"/>
      <point x="1229" y="672" type="curve" smooth="yes"/>
      <point x="1211" y="718"/>
      <point x="1188" y="757"/>
      <point x="1160" y="790" type="curve" smooth="yes"/>
      <point x="1132" y="823"/>
      <point x="1097" y="852"/>
      <point x="1055" y="878" type="curve" smooth="yes"/>
      <point x="1013" y="904"/>
      <point x="970" y="925"/>
      <point x="927" y="942" type="curve" smooth="yes"/>
      <point x="884" y="959"/>
      <point x="835" y="975"/>
      <point x="780" y="990" type="curve"/>
      <point x="780" y="1218" type="line" smooth="yes"/>
      <point x="780" y="1222"/>
      <point x="784" y="1224"/>
      <point x="791" y="1224" type="curve" smooth="yes"/>
      <point x="798" y="1224"/>
      <point x="805" y="1220"/>
      <point x="812" y="1213" type="curve" smooth="yes"/>
      <point x="868" y="1161"/>
      <point x="904" y="1103"/>
      <point x="919" y="1039" type="curve"/>
      <point x="929" y="1029" type="line"/>
      <point x="946" y="1028"/>
      <point x="958" y="1027"/>
      <point x="965" y="1027" type="curve" smooth="yes"/>
      <point x="970" y="1027"/>
      <point x="980" y="1027"/>
      <point x="996" y="1028" type="curve" smooth="yes"/>
      <point x="1012" y="1029"/>
      <point x="1020" y="1029"/>
      <point x="1021" y="1029" type="curve" smooth="yes"/>
      <point x="1142" y="1033" type="line"/>
      <point x="1148" y="1039" type="line"/>
      <point x="1148" y="1465" type="line" smooth="yes"/>
      <point x="1148" y="1466"/>
      <point x="1148" y="1467"/>
      <point x="1147" y="1468" type="curve" smooth="yes"/>
      <point x="1144" y="1470" type="line"/>
      <point x="1141" y="1472" type="line" smooth="yes"/>
      <point x="1140" y="1472"/>
      <point x="1137" y="1473"/>
      <point x="1132" y="1474" type="curve" smooth="yes"/>
      <point x="1127" y="1475"/>
      <point x="1124" y="1476"/>
      <point x="1123" y="1476" type="curve" smooth="yes"/>
      <point x="966" y="1476" type="line"/>
      <point x="939" y="1449" type="line"/>
      <point x="923" y="1433" type="line"/>
      <point x="862" y="1461"/>
      <point x="814" y="1481"/>
      <point x="779" y="1493" type="curve"/>
      <point x="779" y="1703" type="line"/>
      <point x="552" y="1703" type="line"/>
      <point x="552" y="1512" type="line"/>
      <point x="401" y="1504"/>
      <point x="279" y="1460"/>
      <point x="187" y="1380" type="curve" smooth="yes"/>
      <point x="95" y="1300"/>
      <point x="49" y="1191"/>
      <point x="49" y="1053" type="curve" smooth="yes"/>
      <point x="49" y="1010"/>
      <point x="54" y="970"/>
      <point x="63" y="934" type="curve" smooth="yes"/>
      <point x="72" y="898"/>
      <point x="84" y="866"/>
      <point x="99" y="839" type="curve" smooth="yes"/>
      <point x="114" y="812"/>
      <point x="134" y="787"/>
      <point x="159" y="764" type="curve" smooth="yes"/>
      <point x="184" y="741"/>
      <point x="209" y="721"/>
      <point x="234" y="705" type="curve" smooth="yes"/>
      <point x="259" y="689"/>
      <point x="290" y="673"/>
      <point x="327" y="658" type="curve" smooth="yes"/>
      <point x="364" y="643"/>
      <point x="398" y="630"/>
      <point x="429" y="620" type="curve" smooth="yes"/>
      <point x="460" y="610"/>
      <point x="498" y="599"/>
      <point x="542" y="587" type="curve"/>
      <point x="542" y="299" type="line"/>
      <point x="493" y="299"/>
      <point x="441" y="326"/>
      <point x="387" y="380" type="curve" smooth="yes"/>
      <point x="333" y="434"/>
      <point x="303" y="489"/>
      <point x="298" y="546" type="curve"/>
    </contour>
    <contour>
      <point x="432" y="1181" type="line" smooth="yes"/>
      <point x="432" y="1206"/>
      <point x="444" y="1227"/>
      <point x="468" y="1245" type="curve" smooth="yes"/>
      <point x="492" y="1263"/>
      <point x="518" y="1271"/>
      <point x="547" y="1270" type="curve"/>
      <point x="547" y="1059" type="line"/>
      <point x="513" y="1066"/>
      <point x="485" y="1081"/>
      <point x="464" y="1103" type="curve" smooth="yes"/>
      <point x="443" y="1125"/>
      <point x="432" y="1151"/>
      <point x="432" y="1180" type="curve" smooth="yes"/>
    </contour>
    <contour>
      <point x="872" y="400" type="line"/>
      <point x="872" y="377"/>
      <point x="861" y="356"/>
      <point x="840" y="337" type="curve" smooth="yes"/>
      <point x="819" y="318"/>
      <point x="796" y="308"/>
      <point x="771" y="308" type="curve"/>
      <point x="771" y="528" type="line"/>
      <point x="808" y="523"/>
      <point x="835" y="507"/>
      <point x="852" y="481" type="curve" smooth="yes"/>
      <point x="869" y="455"/>
      <point x="876" y="428"/>
      <point x="873" y="400" type="curve"/>
    </contour>
  </outline>
</glyph>
<glyph name="quotesingle" format="1">
  <advance width="561"/>
  <unicode hex="0027"/>
  <outline>
    <contour>
      <point x="121" y="945" type="line"/>
      <point x="421" y="945" type="line"/>
      <point x="521" y="1624" type="line"/>
      <point x="41" y="1624" type="line"/>
    </contour>
  </outline>
</glyph>
<glyph name="plus" format="1">
  <advance width="816"/>
  <unicode hex="002B"/>
  <outline>
    <contour>
      <point x="284" y="238" type="line"/>
      <point x="539" y="238" type="line"/>
      <point x="539" y="517" type="line"/>
      <point x="804" y="517" type="line"/>
      <point x="804" y="762" type="line"/>
      <point x="539" y="762" type="line"/>
      <point x="539" y="1051" type="line"/>
      <point x="284" y="1051" type="line"/>
      <point x="284" y="762" type="line"/>
      <point x="12" y="762" type="line"/>
      <point x="12" y="517" type="line"/>
      <point x="284" y="517" type="line"/>
    </contour>
  </outline>
</glyph>
<glyph name="hyphen" format="1">
  <advance width="759"/>
  <unicode hex="002D"/>
  <outline>
    <contour>
      <point x="723" y="836" type="line"/>
      <point x="36" y="836" type="line"/>
      <point x="36" y="537" type="line"/>
      <point x="723" y="537" type="line"/>
    </contour>
  </outline>
</glyph>
<glyph name="six" format="1">
  <advance width="1303"/>
  <unicode hex="0036"/>
  <outline>
    <contour>
      <point x="562" y="1345" type="line"/>
      <point x="1098" y="1345" type="line"/>
      <point x="1098" y="1344"/>
      <point x="1075" y="1321"/>
      <point x="1028" y="1275" type="curve" smooth="yes"/>
      <point x="981" y="1229"/>
      <point x="933" y="1180"/>
      <point x="885" y="1128" type="curve" smooth="yes"/>
      <point x="837" y="1076"/>
      <point x="809" y="1041"/>
      <point x="802" y="1023" type="curve"/>
      <point x="946" y="1016"/>
      <point x="1061" y="969"/>
      <point x="1147" y="883" type="curve" smooth="yes"/>
      <point x="1233" y="797"/>
      <point x="1275" y="684"/>
      <point x="1274" y="543" type="curve" smooth="yes"/>
      <point x="1273" y="438"/>
      <point x="1244" y="342"/>
      <point x="1186" y="255" type="curve" smooth="yes"/>
      <point x="1128" y="168"/>
      <point x="1052" y="101"/>
      <point x="958" y="53" type="curve" smooth="yes"/>
      <point x="864" y="5"/>
      <point x="763" y="-19"/>
      <point x="655" y="-19" type="curve" smooth="yes"/>
      <point x="539" y="-19"/>
      <point x="434" y="3"/>
      <point x="339" y="48" type="curve" smooth="yes"/>
      <point x="244" y="93"/>
      <point x="168" y="158"/>
      <point x="112" y="243" type="curve" smooth="yes"/>
      <point x="56" y="328"/>
      <point x="28" y="425"/>
      <point x="28" y="534" type="curve" smooth="yes"/>
      <point x="28" y="566"/>
      <point x="32" y="599"/>
      <point x="39" y="632" type="curve" smooth="yes"/>
      <point x="46" y="665"/>
      <point x="55" y="697"/>
      <point x="66" y="727" type="curve" smooth="yes"/>
      <point x="77" y="757"/>
      <point x="92" y="789"/>
      <point x="111" y="823" type="curve" smooth="yes"/>
      <point x="130" y="857"/>
      <point x="148" y="887"/>
      <point x="165" y="914" type="curve" smooth="yes"/>
      <point x="182" y="941"/>
      <point x="204" y="970"/>
      <point x="230" y="1002" type="curve" smooth="yes"/>
      <point x="256" y="1034"/>
      <point x="279" y="1061"/>
      <point x="298" y="1083" type="curve" smooth="yes"/>
      <point x="317" y="1105"/>
      <point x="341" y="1131"/>
      <point x="370" y="1161" type="curve" smooth="yes"/>
      <point x="399" y="1191"/>
      <point x="422" y="1214"/>
      <point x="438" y="1230" type="curve" smooth="yes"/>
      <point x="454" y="1246"/>
      <point x="476" y="1267"/>
      <point x="503" y="1293" type="curve" smooth="yes"/>
      <point x="530" y="1319"/>
      <point x="548" y="1337"/>
      <point x="557" y="1346" type="curve"/>
    </contour>
    <contour>
      <point x="540" y="551" type="curve" smooth="yes"/>
      <point x="540" y="529"/>
      <point x="541" y="508"/>
      <point x="543" y="487" type="curve" smooth="yes"/>
      <point x="545" y="466"/>
      <point x="549" y="442"/>
      <point x="555" y="416" type="curve" smooth="yes"/>
      <point x="561" y="390"/>
      <point x="572" y="369"/>
      <point x="587" y="353" type="curve" smooth="yes"/>
      <point x="602" y="337"/>
      <point x="621" y="329"/>
      <point x="644" y="329" type="curve" smooth="yes"/>
      <point x="721" y="329"/>
      <point x="760" y="401"/>
      <point x="760" y="546" type="curve" smooth="yes"/>
      <point x="760" y="596" type="line" smooth="yes"/>
      <point x="760" y="608"/>
      <point x="758" y="627"/>
      <point x="754" y="653" type="curve" smooth="yes"/>
      <point x="750" y="679"/>
      <point x="745" y="700"/>
      <point x="739" y="715" type="curve" smooth="yes"/>
      <point x="733" y="730"/>
      <point x="723" y="744"/>
      <point x="709" y="757" type="curve" smooth="yes"/>
      <point x="695" y="770"/>
      <point x="678" y="776"/>
      <point x="658" y="776" type="curve" smooth="yes"/>
      <point x="636" y="775"/>
      <point x="617" y="770"/>
      <point x="602" y="760" type="curve" smooth="yes"/>
      <point x="587" y="750"/>
      <point x="575" y="738"/>
      <point x="567" y="725" type="curve" smooth="yes"/>
      <point x="559" y="712"/>
      <point x="553" y="694"/>
      <point x="549" y="671" type="curve" smooth="yes"/>
      <point x="545" y="648"/>
      <point x="542" y="629"/>
      <point x="541" y="613" type="curve" smooth="yes"/>
      <point x="540" y="597"/>
      <point x="540" y="576"/>
    </contour>
  </outline>
</glyph>
<glyph name="seven" format="1">
  <advance width="1199"/>
  <unicode hex="0037"/>
  <outline>
    <contour>
      <point x="32" y="878" type="line"/>
      <point x="32" y="1337" type="line"/>
      <point x="1175" y="1337" type="line"/>
      <point x="1175" y="1067" type="line"/>
      <point x="649" y="0" type="line"/>
      <point x="117" y="0" type="line"/>
      <point x="622" y="1020" type="line"/>
      <point x="381" y="1020" type="line" smooth="yes"/>
      <point x="335" y="1020"/>
      <point x="302" y="1010"/>
      <point x="281" y="991" type="curve" smooth="yes"/>
      <point x="260" y="972"/>
      <point x="250" y="934"/>
      <point x="250" y="877" type="curve"/>
    </contour>
  </outline>
</glyph>
<glyph name="nine" format="1">
  <advance width="1308"/>
  <unicode hex="0039"/>
  <outline>
    <contour>
      <point x="209" y="0" type="line"/>
      <point x="264" y="54" type="line" smooth="yes"/>
      <point x="301" y="91"/>
      <point x="345" y="136"/>
      <point x="396" y="189" type="curve" smooth="yes"/>
      <point x="447" y="242"/>
      <point x="486" y="286"/>
      <point x="513" y="321" type="curve"/>
      <point x="375" y="321"/>
      <point x="260" y="365"/>
      <point x="167" y="453" type="curve" smooth="yes"/>
      <point x="74" y="541"/>
      <point x="28" y="650"/>
      <point x="28" y="781" type="curve" smooth="yes"/>
      <point x="28" y="950"/>
      <point x="88" y="1090"/>
      <point x="208" y="1201" type="curve" smooth="yes"/>
      <point x="328" y="1312"/>
      <point x="482" y="1367"/>
      <point x="670" y="1367" type="curve" smooth="yes"/>
      <point x="785" y="1367"/>
      <point x="889" y="1343"/>
      <point x="982" y="1295" type="curve" smooth="yes"/>
      <point x="1075" y="1247"/>
      <point x="1148" y="1181"/>
      <point x="1201" y="1096" type="curve" smooth="yes"/>
      <point x="1254" y="1011"/>
      <point x="1280" y="916"/>
      <point x="1280" y="811" type="curve" smooth="yes"/>
      <point x="1280" y="772"/>
      <point x="1274" y="732"/>
      <point x="1263" y="690" type="curve" smooth="yes"/>
      <point x="1252" y="648"/>
      <point x="1238" y="609"/>
      <point x="1221" y="573" type="curve" smooth="yes"/>
      <point x="1204" y="537"/>
      <point x="1182" y="499"/>
      <point x="1155" y="458" type="curve" smooth="yes"/>
      <point x="1128" y="417"/>
      <point x="1102" y="381"/>
      <point x="1077" y="350" type="curve" smooth="yes"/>
      <point x="1052" y="319"/>
      <point x="1023" y="285"/>
      <point x="989" y="248" type="curve" smooth="yes"/>
      <point x="955" y="211"/>
      <point x="926" y="180"/>
      <point x="902" y="156" type="curve" smooth="yes"/>
      <point x="878" y="132"/>
      <point x="850" y="103"/>
      <point x="818" y="70" type="curve" smooth="yes"/>
      <point x="786" y="37"/>
      <point x="762" y="13"/>
      <point x="747" y="-2" type="curve"/>
    </contour>
    <contour>
      <point x="550" y="780" type="curve" smooth="yes"/>
      <point x="550" y="641"/>
      <point x="586" y="571"/>
      <point x="659" y="571" type="curve" smooth="yes"/>
      <point x="724" y="571"/>
      <point x="757" y="643"/>
      <point x="757" y="788" type="curve" smooth="yes"/>
      <point x="757" y="806"/>
      <point x="756" y="825"/>
      <point x="754" y="846" type="curve" smooth="yes"/>
      <point x="752" y="867"/>
      <point x="748" y="891"/>
      <point x="742" y="918" type="curve" smooth="yes"/>
      <point x="736" y="945"/>
      <point x="726" y="967"/>
      <point x="712" y="984" type="curve" smooth="yes"/>
      <point x="698" y="1001"/>
      <point x="681" y="1010"/>
      <point x="661" y="1010" type="curve" smooth="yes"/>
      <point x="587" y="1010"/>
      <point x="550" y="933"/>
    </contour>
  </outline>
</glyph>
<glyph name="less" format="1">
  <advance width="766"/>
  <unicode hex="003C"/>
  <outline>
    <contour>
      <point x="730" y="-20" type="line"/>
      <point x="730" y="445" type="line"/>
      <point x="397" y="761" type="line"/>
      <point x="730" y="1077" type="line"/>
      <point x="730" y="1542" type="line"/>
      <point x="15" y="946" type="line"/>
      <point x="15" y="576" type="line"/>
    </contour>
  </outline>
</glyph>
<glyph name="at" format="1">
  <advance width="1817"/>
  <unicode hex="0040"/>
  <outline>
    <contour>
      <point x="1343" y="398" type="line"/>
      <point x="1342" y="603" type="line" smooth="yes"/>
      <point x="1342" y="652"/>
      <point x="1336" y="696"/>
      <point x="1324" y="735" type="curve" smooth="yes"/>
      <point x="1312" y="774"/>
      <point x="1298" y="806"/>
      <point x="1281" y="830" type="curve" smooth="yes"/>
      <point x="1264" y="854"/>
      <point x="1242" y="875"/>
      <point x="1216" y="893" type="curve" smooth="yes"/>
      <point x="1190" y="911"/>
      <point x="1166" y="924"/>
      <point x="1144" y="933" type="curve" smooth="yes"/>
      <point x="1122" y="942"/>
      <point x="1096" y="949"/>
      <point x="1067" y="954" type="curve" smooth="yes"/>
      <point x="1038" y="959"/>
      <point x="1016" y="962"/>
      <point x="1001" y="963" type="curve" smooth="yes"/>
      <point x="986" y="964"/>
      <point x="969" y="964"/>
      <point x="950" y="964" type="curve" smooth="yes"/>
      <point x="876" y="964"/>
      <point x="811" y="954"/>
      <point x="755" y="934" type="curve" smooth="yes"/>
      <point x="699" y="914"/>
      <point x="655" y="886"/>
      <point x="623" y="850" type="curve" smooth="yes"/>
      <point x="591" y="814"/>
      <point x="567" y="774"/>
      <point x="551" y="730" type="curve" smooth="yes"/>
      <point x="535" y="686"/>
      <point x="527" y="638"/>
      <point x="527" y="587" type="curve" smooth="yes"/>
      <point x="527" y="468"/>
      <point x="555" y="372"/>
      <point x="611" y="299" type="curve" smooth="yes"/>
      <point x="667" y="226"/>
      <point x="734" y="189"/>
      <point x="813" y="189" type="curve" smooth="yes"/>
      <point x="851" y="189"/>
      <point x="890" y="198"/>
      <point x="930" y="216" type="curve" smooth="yes"/>
      <point x="970" y="234"/>
      <point x="1002" y="259"/>
      <point x="1025" y="292" type="curve"/>
      <point x="1063" y="202" type="line"/>
      <point x="1213" y="202" type="line" smooth="yes"/>
      <point x="1314" y="202"/>
      <point x="1402" y="214"/>
      <point x="1477" y="237" type="curve" smooth="yes"/>
      <point x="1552" y="260"/>
      <point x="1612" y="293"/>
      <point x="1657" y="336" type="curve" smooth="yes"/>
      <point x="1702" y="379"/>
      <point x="1735" y="429"/>
      <point x="1757" y="485" type="curve" smooth="yes"/>
      <point x="1779" y="541"/>
      <point x="1790" y="604"/>
      <point x="1790" y="674" type="curve" smooth="yes"/>
      <point x="1790" y="770"/>
      <point x="1770" y="860"/>
      <point x="1731" y="944" type="curve" smooth="yes"/>
      <point x="1692" y="1028"/>
      <point x="1637" y="1102"/>
      <point x="1565" y="1165" type="curve" smooth="yes"/>
      <point x="1493" y="1228"/>
      <point x="1403" y="1278"/>
      <point x="1294" y="1314" type="curve" smooth="yes"/>
      <point x="1185" y="1350"/>
      <point x="1065" y="1368"/>
      <point x="934" y="1368" type="curve" smooth="yes"/>
      <point x="793" y="1368"/>
      <point x="665" y="1347"/>
      <point x="550" y="1304" type="curve" smooth="yes"/>
      <point x="435" y="1261"/>
      <point x="340" y="1203"/>
      <point x="265" y="1130" type="curve" smooth="yes"/>
      <point x="190" y="1057"/>
      <point x="132" y="972"/>
      <point x="91" y="875" type="curve" smooth="yes"/>
      <point x="50" y="778"/>
      <point x="30" y="674"/>
      <point x="30" y="563" type="curve" smooth="yes"/>
      <point x="30" y="458"/>
      <point x="51" y="359"/>
      <point x="94" y="267" type="curve" smooth="yes"/>
      <point x="137" y="175"/>
      <point x="198" y="94"/>
      <point x="277" y="24" type="curve" smooth="yes"/>
      <point x="356" y="-46"/>
      <point x="456" y="-101"/>
      <point x="578" y="-141" type="curve" smooth="yes"/>
      <point x="700" y="-181"/>
      <point x="836" y="-201"/>
      <point x="985" y="-201" type="curve" smooth="yes"/>
      <point x="1055" y="-201"/>
      <point x="1127" y="-191"/>
      <point x="1200" y="-172" type="curve"/>
      <point x="1148" y="56" type="line"/>
      <point x="1097" y="41"/>
      <point x="1043" y="34"/>
      <point x="985" y="34" type="curve" smooth="yes"/>
      <point x="881" y="34"/>
      <point x="788" y="48"/>
      <point x="706" y="76" type="curve" smooth="yes"/>
      <point x="624" y="104"/>
      <point x="557" y="142"/>
      <point x="505" y="190" type="curve" smooth="yes"/>
      <point x="453" y="238"/>
      <point x="413" y="294"/>
      <point x="386" y="358" type="curve" smooth="yes"/>
      <point x="359" y="422"/>
      <point x="345" y="491"/>
      <point x="345" y="565" type="curve" smooth="yes"/>
      <point x="345" y="733"/>
      <point x="396" y="867"/>
      <point x="498" y="966" type="curve" smooth="yes"/>
      <point x="600" y="1065"/>
      <point x="746" y="1115"/>
      <point x="935" y="1115" type="curve" smooth="yes"/>
      <point x="1122" y="1115"/>
      <point x="1264" y="1075"/>
      <point x="1361" y="995" type="curve" smooth="yes"/>
      <point x="1458" y="915"/>
      <point x="1506" y="808"/>
      <point x="1506" y="675" type="curve" smooth="yes"/>
      <point x="1506" y="626"/>
      <point x="1503" y="584"/>
      <point x="1496" y="548" type="curve" smooth="yes"/>
      <point x="1489" y="512"/>
      <point x="1481" y="485"/>
      <point x="1471" y="466" type="curve" smooth="yes"/>
      <point x="1461" y="447"/>
      <point x="1448" y="432"/>
      <point x="1433" y="421" type="curve" smooth="yes"/>
      <point x="1418" y="410"/>
      <point x="1404" y="403"/>
      <point x="1391" y="400" type="curve" smooth="yes"/>
      <point x="1378" y="397"/>
      <point x="1364" y="395"/>
      <point x="1348" y="395" type="curve"/>
    </contour>
    <contour>
      <point x="872" y="579" type="line"/>
      <point x="872" y="612"/>
      <point x="873" y="641"/>
      <point x="875" y="666" type="curve" smooth="yes"/>
      <point x="877" y="691"/>
      <point x="881" y="715"/>
      <point x="886" y="739" type="curve" smooth="yes"/>
      <point x="891" y="763"/>
      <point x="899" y="781"/>
      <point x="910" y="794" type="curve" smooth="yes"/>
      <point x="921" y="807"/>
      <point x="935" y="813"/>
      <point x="952" y="813" type="curve" smooth="yes"/>
      <point x="980" y="813"/>
      <point x="1000" y="802"/>
      <point x="1011" y="781" type="curve" smooth="yes"/>
      <point x="1022" y="760"/>
      <point x="1028" y="722"/>
      <point x="1028" y="667" type="curve" smooth="yes"/>
      <point x="1028" y="405" type="line"/>
      <point x="1009" y="382"/>
      <point x="981" y="370"/>
      <point x="944" y="370" type="curve" smooth="yes"/>
      <point x="922" y="370"/>
      <point x="904" y="389"/>
      <point x="891" y="427" type="curve" smooth="yes"/>
      <point x="878" y="465"/>
      <point x="871" y="515"/>
      <point x="871" y="577" type="curve"/>
    </contour>
  </outline>
</glyph>
<glyph name="B" format="1">
  <advance width="1640"/>
  <unicode hex="0042"/>
  <outline>
    <contour>
      <point x="1512" y="1174" type="curve" smooth="yes"/>
      <point x="1512" y="1007"/>
      <point x="1400" y="888"/>
      <point x="1267" y="840" type="curve"/>
      <point x="1456" y="785"/>
      <point x="1581" y="651"/>
      <point x="1581" y="420" type="curve" smooth="yes"/>
      <point x="1581" y="101"/>
      <point x="1317" y="0"/>
      <point x="996" y="0" type="curve" smooth="yes"/>
      <point x="54" y="0" type="line"/>
      <point x="54" y="359" type="line"/>
      <point x="227" y="359" type="line"/>
      <point x="227" y="1240" type="line"/>
      <point x="61" y="1240" type="line"/>
      <point x="61" y="1593" type="line"/>
      <point x="875" y="1593" type="line" smooth="yes"/>
      <point x="1232" y="1593"/>
      <point x="1512" y="1529"/>
    </contour>
    <contour>
      <point x="1026" y="527" type="curve" smooth="yes"/>
      <point x="1026" y="645"/>
      <point x="952" y="690"/>
      <point x="828" y="690" type="curve" smooth="yes"/>
      <point x="821" y="690"/>
      <point x="796" y="690"/>
      <point x="754" y="689" type="curve"/>
      <point x="754" y="359" type="line"/>
      <point x="776" y="359" type="line" smooth="yes"/>
      <point x="909" y="359"/>
      <point x="1026" y="368"/>
    </contour>
    <contour>
      <point x="1018" y="1101" type="curve" smooth="yes"/>
      <point x="1018" y="1185"/>
      <point x="960" y="1240"/>
      <point x="880" y="1240" type="curve" smooth="yes"/>
      <point x="754" y="1240" type="line"/>
      <point x="754" y="951" type="line"/>
      <point x="795" y="951" type="line" smooth="yes"/>
      <point x="933" y="951"/>
      <point x="1018" y="977"/>
    </contour>
    <contour>
      <point x="817" y="1593" type="line" smooth="yes"/>
    </contour>
    <contour>
      <point x="817" y="0" type="line" smooth="yes"/>
    </contour>
  </outline>
</glyph>
<glyph name="G" format="1">
  <advance width="1687"/>
  <unicode hex="0047"/>
  <outline>
    <contour>
      <point x="644" y="801" type="curve" smooth="yes"/>
      <point x="644" y="590"/>
      <point x="753" y="378"/>
      <point x="966" y="378" type="curve" smooth="yes"/>
      <point x="1065" y="378"/>
      <point x="1156" y="416"/>
      <point x="1156" y="416" type="curve"/>
      <point x="1156" y="558" type="line"/>
      <point x="988" y="558" type="line"/>
      <point x="988" y="862" type="line"/>
      <point x="1613" y="862" type="line"/>
      <point x="1613" y="140" type="line"/>
      <point x="1408" y="30"/>
      <point x="1165" y="-29"/>
      <point x="933" y="-29" type="curve" smooth="yes"/>
      <point x="469" y="-29"/>
      <point x="45" y="211"/>
      <point x="45" y="792" type="curve" smooth="yes"/>
      <point x="45" y="1233"/>
      <point x="308" y="1622"/>
      <point x="847" y="1622" type="curve" smooth="yes"/>
      <point x="976" y="1622"/>
      <point x="1081" y="1581"/>
      <point x="1160" y="1485" type="curve"/>
      <point x="1194" y="1593" type="line"/>
      <point x="1539" y="1593" type="line"/>
      <point x="1539" y="993" type="line"/>
      <point x="1231" y="993" type="line"/>
      <point x="1188" y="1177"/>
      <point x="1080" y="1260"/>
      <point x="968" y="1260" type="curve" smooth="yes"/>
      <point x="771" y="1260"/>
      <point x="644" y="1089"/>
    </contour>
    <contour>
      <point x="829" y="1593" type="line" smooth="yes"/>
    </contour>
    <contour>
      <point x="829" y="0" type="line" smooth="yes"/>
    </contour>
    <contour>
      <point x="844" y="1592" type="move" name="top"/>
    </contour>
    <contour>
      <point x="844" y="0" type="move" name="bottom"/>
    </contour>
  </outline>
</glyph>
<glyph name="H" format="1">
  <advance width="1875"/>
  <unicode hex="0048"/>
  <outline>
    <contour>
      <point x="54" y="359" type="line"/>
      <point x="54" y="0" type="line"/>
      <point x="878" y="0" type="line"/>
      <point x="878" y="359" type="line"/>
      <point x="775" y="359" type="line"/>
      <point x="775" y="635" type="line"/>
      <point x="1102" y="635" type="line"/>
      <point x="1102" y="359" type="line"/>
      <point x="1014" y="359" type="line"/>
      <point x="1014" y="0" type="line"/>
      <point x="1821" y="0" type="line"/>
      <point x="1821" y="359" type="line"/>
      <point x="1670" y="359" type="line"/>
      <point x="1670" y="1240" type="line"/>
      <point x="1821" y="1240" type="line"/>
      <point x="1821" y="1593" type="line"/>
      <point x="1014" y="1593" type="line"/>
      <point x="1014" y="1240" type="line"/>
      <point x="1102" y="1240" type="line"/>
      <point x="1102" y="976" type="line"/>
      <point x="775" y="976" type="line"/>
      <point x="775" y="1240" type="line"/>
      <point x="877" y="1240" type="line"/>
      <point x="877" y="1593" type="line"/>
      <point x="54" y="1593" type="line"/>
      <point x="54" y="1240" type="line"/>
      <point x="208" y="1240" type="line"/>
      <point x="208" y="359" type="line"/>
    </contour>
    <contour>
      <point x="936" y="1593" type="line" smooth="yes"/>
    </contour>
    <contour>
      <point x="936" y="0" type="line" smooth="yes"/>
    </contour>
    <contour>
      <point x="938" y="1592" type="move" name="top"/>
    </contour>
    <contour>
      <point x="938" y="796" type="move" name="center"/>
    </contour>
  </outline>
</glyph>
<glyph name="I" format="1">
  <advance width="940"/>
  <unicode hex="0049"/>
  <outline>
    <contour>
      <point x="904" y="1240" type="line"/>
      <point x="904" y="1593" type="line"/>
      <point x="40" y="1593" type="line"/>
      <point x="40" y="1240" type="line"/>
      <point x="183" y="1240" type="line"/>
      <point x="183" y="359" type="line"/>
      <point x="36" y="359" type="line"/>
      <point x="36" y="0" type="line"/>
      <point x="898" y="0" type="line"/>
      <point x="898" y="359" type="line"/>
      <point x="757" y="359" type="line"/>
      <point x="757" y="1240" type="line"/>
    </contour>
    <contour>
      <point x="470" y="1593" type="line" smooth="yes"/>
    </contour>
    <contour>
      <point x="470" y="0" type="line" smooth="yes"/>
    </contour>
    <contour>
      <point x="470" y="1592" type="move" name="top"/>
    </contour>
    <contour>
      <point x="846" y="10" type="move" name="ogonek"/>
    </contour>
  </outline>
</glyph>
<glyph name="N" format="1">
  <advance width="1824"/>
  <unicode hex="004E"/>
  <outline>
    <contour>
      <point x="1612" y="1240" type="line"/>
      <point x="1612" y="0" type="line"/>
      <point x="1006" y="0" type="line"/>
      <point x="533" y="878" type="line"/>
      <point x="533" y="360" type="line"/>
      <point x="533" y="360"/>
      <point x="579" y="360"/>
      <point x="691" y="359" type="curve"/>
      <point x="691" y="0" type="line"/>
      <point x="54" y="0" type="line"/>
      <point x="54" y="359" type="line"/>
      <point x="156" y="359"/>
      <point x="217" y="360"/>
      <point x="217" y="360" type="curve"/>
      <point x="217" y="1242" type="line"/>
      <point x="60" y="1242" type="line"/>
      <point x="60" y="1593" type="line"/>
      <point x="795" y="1593" type="line"/>
      <point x="1291" y="647" type="line"/>
      <point x="1291" y="1240" type="line"/>
      <point x="1133" y="1240" type="line"/>
      <point x="1133" y="1592" type="line"/>
      <point x="1770" y="1592" type="line"/>
      <point x="1770" y="1240" type="line"/>
    </contour>
    <contour>
      <point x="912" y="1593" type="line" smooth="yes"/>
    </contour>
    <contour>
      <point x="912" y="0" type="line" smooth="yes"/>
    </contour>
    <contour>
      <point x="912" y="1592" type="move" name="top"/>
    </contour>
    <contour>
      <point x="912" y="0" type="move" name="bottom"/>
    </contour>
  </outline>
</glyph>
<glyph name="Q" format="1">
  <advance width="1835"/>
  <unicode hex="0051"/>
  <outline>
    <contour>
      <point x="888" y="-29" type="curve" smooth="yes"/>
      <point x="970" y="-29"/>
      <point x="1049" y="-18"/>
      <point x="1122" y="1" type="curve"/>
      <point x="1760" y="1" type="line"/>
      <point x="1760" y="360" type="line"/>
      <point x="1597" y="360" type="line"/>
      <point x="1594" y="359" type="line"/>
      <point x="1667" y="484"/>
      <point x="1708" y="633"/>
      <point x="1708" y="798" type="curve" smooth="yes"/>
      <point x="1708" y="1295"/>
      <point x="1393" y="1623"/>
      <point x="888" y="1623" type="curve" smooth="yes"/>
      <point x="383" y="1623"/>
      <point x="68" y="1295"/>
      <point x="68" y="798" type="curve" smooth="yes"/>
      <point x="68" y="323"/>
      <point x="407" y="-29"/>
    </contour>
    <contour>
      <point x="888" y="318" type="curve" smooth="yes"/>
      <point x="738" y="318"/>
      <point x="668" y="564"/>
      <point x="668" y="806" type="curve" smooth="yes"/>
      <point x="668" y="1037"/>
      <point x="732" y="1260"/>
      <point x="888" y="1260" type="curve" smooth="yes"/>
      <point x="1044" y="1260"/>
      <point x="1108" y="1037"/>
      <point x="1108" y="806" type="curve" smooth="yes"/>
      <point x="1108" y="564"/>
      <point x="1038" y="318"/>
    </contour>
  </outline>
</glyph>
<glyph name="R" format="1">
  <advance width="1780"/>
  <unicode hex="0052"/>
  <outline>
    <contour>
      <point x="128" y="0" type="line"/>
      <point x="128" y="0"/>
      <point x="960" y="0"/>
      <point x="960" y="0" type="curve"/>
      <point x="960" y="352" type="line"/>
      <point x="800" y="352" type="line"/>
      <point x="800" y="683" type="line"/>
      <point x="921" y="683" type="line" smooth="yes"/>
      <point x="1074" y="683"/>
      <point x="1107" y="592"/>
      <point x="1107" y="440" type="curve" smooth="yes"/>
      <point x="1107" y="-2"/>
      <point x="1214" y="0"/>
      <point x="1471" y="0" type="curve" smooth="yes"/>
      <point x="1792" y="0" type="line"/>
      <point x="1792" y="358" type="line"/>
      <point x="1792" y="358"/>
      <point x="1568" y="358"/>
      <point x="1568" y="358" type="curve" smooth="yes"/>
      <point x="1568" y="488" type="line" smooth="yes"/>
      <point x="1568" y="646"/>
      <point x="1500" y="775"/>
      <point x="1298" y="807" type="curve"/>
      <point x="1497" y="844"/>
      <point x="1632" y="941"/>
      <point x="1632" y="1160" type="curve" smooth="yes"/>
      <point x="1632" y="1473"/>
      <point x="1477" y="1592"/>
      <point x="1150" y="1592" type="curve" smooth="yes"/>
      <point x="128" y="1592" type="line"/>
      <point x="128" y="1240" type="line"/>
      <point x="288" y="1240" type="line"/>
      <point x="288" y="352" type="line"/>
      <point x="128" y="352" type="line"/>
    </contour>
    <contour>
      <point x="800" y="909" type="line"/>
      <point x="800" y="1240" type="line"/>
      <point x="958" y="1240" type="line" smooth="yes"/>
      <point x="1071" y="1240"/>
      <point x="1152" y="1183"/>
      <point x="1152" y="1085" type="curve" smooth="yes"/>
      <point x="1152" y="949"/>
      <point x="1073" y="909"/>
      <point x="938" y="909" type="curve" smooth="yes"/>
    </contour>
    <contour>
      <point x="916" y="1592" type="move" name="top"/>
    </contour>
    <contour>
      <point x="916" y="0" type="move" name="bottom"/>
    </contour>
  </outline>
</glyph>
<glyph name="S" format="1">
  <advance width="1406"/>
  <unicode hex="0053"/>
  <outline>
    <contour>
      <point x="825" y="-29" type="curve" smooth="yes"/>
      <point x="1133" y="-29"/>
      <point x="1332" y="203"/>
      <point x="1332" y="501" type="curve" smooth="yes"/>
      <point x="1332" y="873"/>
      <point x="1068" y="991"/>
      <point x="756" y="1062" type="curve" smooth="yes"/>
      <point x="656" y="1085"/>
      <point x="546" y="1112"/>
      <point x="546" y="1183" type="curve" smooth="yes"/>
      <point x="546" y="1242"/>
      <point x="588" y="1275"/>
      <point x="662" y="1275" type="curve" smooth="yes"/>
      <point x="796" y="1275"/>
      <point x="866" y="1238"/>
      <point x="929" y="1117" type="curve"/>
      <point x="1236" y="1117" type="line"/>
      <point x="1236" y="1593" type="line"/>
      <point x="951" y="1593" type="line"/>
      <point x="932" y="1561"/>
      <point x="921" y="1541"/>
      <point x="918" y="1533" type="curve"/>
      <point x="820" y="1593"/>
      <point x="692" y="1623"/>
      <point x="534" y="1623" type="curve" smooth="yes"/>
      <point x="290" y="1623"/>
      <point x="78" y="1423"/>
      <point x="78" y="1133" type="curve" smooth="yes"/>
      <point x="78" y="735"/>
      <point x="347" y="626"/>
      <point x="670" y="538" type="curve" smooth="yes"/>
      <point x="743" y="518"/>
      <point x="830" y="494"/>
      <point x="830" y="420" type="curve" smooth="yes"/>
      <point x="830" y="364"/>
      <point x="763" y="334"/>
      <point x="691" y="334" type="curve" smooth="yes"/>
      <point x="573" y="334"/>
      <point x="480" y="368"/>
      <point x="437" y="488" type="curve"/>
      <point x="115" y="488" type="line"/>
      <point x="115" y="0" type="line"/>
      <point x="438" y="0" type="line"/>
      <point x="474" y="92" type="line"/>
      <point x="576" y="11"/>
      <point x="652" y="-29"/>
    </contour>
    <contour>
      <point x="659" y="1592" type="move" name="top"/>
    </contour>
    <contour>
      <point x="659" y="0" type="move" name="bottom"/>
    </contour>
  </outline>
</glyph>
<glyph name="T" format="1">
  <advance width="1557"/>
  <unicode hex="0054"/>
  <outline>
    <contour>
      <point x="1246" y="965" type="line"/>
      <point x="1527" y="965" type="line"/>
      <point x="1527" y="1592" type="line"/>
      <point x="30" y="1592" type="line"/>
      <point x="30" y="965" type="line"/>
      <point x="311" y="965" type="line"/>
      <point x="355" y="1240" type="line"/>
      <point x="495" y="1240" type="line"/>
      <point x="495" y="360" type="line"/>
      <point x="331" y="360" type="line"/>
      <point x="331" y="0" type="line"/>
      <point x="1222" y="0" type="line"/>
      <point x="1222" y="360" type="line"/>
      <point x="1058" y="360" type="line"/>
      <point x="1058" y="1240" type="line"/>
      <point x="1204" y="1240" type="line"/>
    </contour>
    <contour>
      <point x="778" y="1593" type="line" smooth="yes"/>
    </contour>
    <contour>
      <point x="778" y="0" type="line" smooth="yes"/>
    </contour>
    <contour>
      <point x="779" y="1592" type="move" name="top"/>
    </contour>
    <contour>
      <point x="779" y="0" type="move" name="bottom"/>
    </contour>
    <contour>
      <point x="779" y="796" type="move" name="center"/>
    </contour>
  </outline>
</glyph>
<glyph name="X" format="1">
  <advance width="1921"/>
  <unicode hex="0058"/>
  <outline>
    <contour>
      <point x="857" y="359" type="curve"/>
      <point x="857" y="0" type="line"/>
      <point x="35" y="0" type="line"/>
      <point x="35" y="358" type="line"/>
      <point x="194" y="358" type="line"/>
      <point x="628" y="842" type="line"/>
      <point x="257" y="1240" type="line"/>
      <point x="86" y="1240" type="line"/>
      <point x="86" y="1593" type="line"/>
      <point x="1004" y="1593" type="line"/>
      <point x="1004" y="1240" type="line"/>
      <point x="922" y="1240" type="line"/>
      <point x="1084" y="1044" type="line"/>
      <point x="1232" y="1240" type="line"/>
      <point x="1088" y="1240" type="line"/>
      <point x="1088" y="1593" type="line"/>
      <point x="1835" y="1593" type="line"/>
      <point x="1835" y="1240" type="line"/>
      <point x="1638" y="1240" type="line"/>
      <point x="1305" y="809" type="line"/>
      <point x="1734" y="359" type="line"/>
      <point x="1886" y="359" type="line"/>
      <point x="1886" y="0" type="line"/>
      <point x="957" y="0" type="line"/>
      <point x="957" y="359" type="line"/>
      <point x="1083" y="359" type="line"/>
      <point x="840" y="614" type="line"/>
      <point x="634" y="358" type="line"/>
      <point x="653.333" y="358.667"/>
      <point x="727.667" y="359"/>
    </contour>
    <contour>
      <point x="960" y="1593" type="line" smooth="yes"/>
    </contour>
    <contour>
      <point x="960" y="0" type="line" smooth="yes"/>
    </contour>
  </outline>
</glyph>
<glyph name="Y" format="1">
  <advance width="1635"/>
  <unicode hex="0059"/>
  <outline>
    <contour>
      <point x="969" y="1240" type="line"/>
      <point x="969" y="1592" type="line"/>
      <point x="1606" y="1592" type="line"/>
      <point x="1606" y="1240" type="line"/>
      <point x="1427" y="1240" type="line"/>
      <point x="1118" y="704" type="line"/>
      <point x="1118" y="359" type="line"/>
      <point x="1275" y="359" type="line"/>
      <point x="1275" y="0" type="line"/>
      <point x="406" y="0" type="line"/>
      <point x="406" y="359" type="line"/>
      <point x="561" y="359" type="line"/>
      <point x="561" y="652" type="line"/>
      <point x="140" y="1240" type="line"/>
      <point x="28" y="1240" type="line"/>
      <point x="28" y="1592" type="line"/>
      <point x="880" y="1592" type="line"/>
      <point x="880" y="1240" type="line"/>
      <point x="789" y="1240" type="line"/>
      <point x="972" y="973" type="line"/>
      <point x="1116" y="1240" type="line"/>
    </contour>
    <contour>
      <point x="817" y="1593" type="line" smooth="yes"/>
    </contour>
    <contour>
      <point x="817" y="0" type="line" smooth="yes"/>
    </contour>
    <contour>
      <point x="818" y="1592" type="move" name="top"/>
    </contour>
  </outline>
</glyph>
<glyph name="asciicircum" format="1">
  <advance width="1438"/>
  <unicode hex="005E"/>
  <outline>
    <contour>
      <point x="36" y="909" type="line"/>
      <point x="501" y="909" type="line"/>
      <point x="717" y="1242" type="line"/>
      <point x="933" y="909" type="line"/>
      <point x="1398" y="909" type="line"/>
      <point x="902" y="1624" type="line"/>
      <point x="532" y="1624" type="line"/>
    </contour>
  </outline>
</glyph>
<glyph name="a" format="1">
  <advance width="1355"/>
  <unicode hex="0061"/>
  <outline>
    <contour>
      <point x="1291" y="0" type="line"/>
      <point x="1291" y="301" type="line"/>
      <point x="1195" y="301" type="line"/>
      <point x="1195" y="750" type="line" smooth="yes"/>
      <point x="1195" y="1032"/>
      <point x="884" y="1091"/>
      <point x="587" y="1091" type="curve" smooth="yes"/>
      <point x="463" y="1091"/>
      <point x="268" y="1064"/>
      <point x="107" y="1022" type="curve"/>
      <point x="107" y="708" type="line"/>
      <point x="286" y="708" type="line"/>
      <point x="334" y="771"/>
      <point x="428" y="823"/>
      <point x="523" y="823" type="curve" smooth="yes"/>
      <point x="671" y="823"/>
      <point x="715" y="748"/>
      <point x="715" y="637" type="curve" smooth="yes"/>
      <point x="715" y="592" type="line"/>
      <point x="639" y="617"/>
      <point x="563" y="630"/>
      <point x="462" y="630" type="curve" smooth="yes"/>
      <point x="250" y="630"/>
      <point x="43" y="529"/>
      <point x="43" y="308" type="curve" smooth="yes"/>
      <point x="43" y="104"/>
      <point x="214" y="-18"/>
      <point x="411" y="-18" type="curve" smooth="yes"/>
      <point x="535" y="-18"/>
      <point x="675" y="59"/>
      <point x="732" y="134" type="curve"/>
      <point x="779" y="0" type="line"/>
    </contour>
    <contour>
      <point x="591" y="224" type="curve" smooth="yes"/>
      <point x="524" y="224"/>
      <point x="491" y="275"/>
      <point x="491" y="327" type="curve" smooth="yes"/>
      <point x="491" y="401"/>
      <point x="536" y="448"/>
      <point x="609" y="448" type="curve" smooth="yes"/>
      <point x="645" y="448"/>
      <point x="690" y="432"/>
      <point x="715" y="427" type="curve"/>
      <point x="715" y="260" type="line"/>
      <point x="698" y="243"/>
      <point x="635" y="224"/>
    </contour>
    <contour>
      <point x="668" y="1008" type="line" smooth="yes"/>
    </contour>
    <contour>
      <point x="1040" y="0" type="line" smooth="yes"/>
    </contour>
    <contour>
      <point x="678" y="1072" type="move" name="top"/>
    </contour>
    <contour>
      <point x="1219" y="10" type="move" name="ogonek"/>
    </contour>
  </outline>
</glyph>
<glyph name="b" format="1">
  <advance width="1432"/>
  <unicode hex="0062"/>
  <outline>
    <contour>
      <point x="930" y="1092" type="curve" smooth="yes"/>
      <point x="1228" y="1092"/>
      <point x="1376" y="837"/>
      <point x="1376" y="538" type="curve" smooth="yes"/>
      <point x="1376" y="228"/>
      <point x="1222" y="-18"/>
      <point x="909" y="-18" type="curve" smooth="yes"/>
      <point x="776" y="-18"/>
      <point x="672" y="51"/>
      <point x="616" y="115" type="curve"/>
      <point x="576" y="0" type="line"/>
      <point x="128" y="0" type="line"/>
      <point x="128" y="1222" type="line"/>
      <point x="0" y="1222" type="line"/>
      <point x="0" y="1495" type="line"/>
      <point x="608" y="1560" type="line"/>
      <point x="608" y="965" type="line"/>
      <point x="713" y="1050"/>
      <point x="831" y="1092"/>
    </contour>
    <contour>
      <point x="764" y="799" type="curve" smooth="yes"/>
      <point x="696" y="799"/>
      <point x="630" y="763"/>
      <point x="608" y="733" type="curve"/>
      <point x="608" y="324" type="line"/>
      <point x="635" y="301"/>
      <point x="704" y="274"/>
      <point x="764" y="274" type="curve" smooth="yes"/>
      <point x="864" y="274"/>
      <point x="928" y="389"/>
      <point x="928" y="509" type="curve" smooth="yes"/>
      <point x="928" y="646"/>
      <point x="886" y="799"/>
    </contour>
    <contour>
      <point x="690" y="1008" type="line" smooth="yes"/>
    </contour>
    <contour>
      <point x="690" y="0" type="line" smooth="yes"/>
    </contour>
  </outline>
</glyph>
<glyph name="c" format="1">
  <advance width="1250"/>
  <unicode hex="0063"/>
  <outline>
    <contour>
      <point x="672" y="-18" type="curve" smooth="yes"/>
      <point x="954" y="-18"/>
      <point x="1120" y="98"/>
      <point x="1120" y="98" type="curve"/>
      <point x="1120" y="377" type="line"/>
      <point x="1105" y="387" type="line"/>
      <point x="1011" y="308"/>
      <point x="882" y="280"/>
      <point x="800" y="280" type="curve" smooth="yes"/>
      <point x="700" y="280"/>
      <point x="544" y="319"/>
      <point x="544" y="545" type="curve" smooth="yes"/>
      <point x="544" y="751"/>
      <point x="618" y="799"/>
      <point x="721" y="799" type="curve" smooth="yes"/>
      <point x="796" y="799"/>
      <point x="853" y="737"/>
      <point x="864" y="628" type="curve"/>
      <point x="1152" y="628" type="line"/>
      <point x="1152" y="1072" type="line"/>
      <point x="935" y="1072" type="line"/>
      <point x="894" y="965" type="line"/>
      <point x="853" y="1061"/>
      <point x="672" y="1091"/>
      <point x="581" y="1091" type="curve" smooth="yes"/>
      <point x="265" y="1091"/>
      <point x="64" y="860"/>
      <point x="64" y="546" type="curve" smooth="yes"/>
      <point x="64" y="200"/>
      <point x="306" y="-18"/>
    </contour>
    <contour>
      <point x="597" y="1072" type="move" name="top"/>
    </contour>
    <contour>
      <point x="597" y="0" type="move" name="bottom"/>
    </contour>
  </outline>
</glyph>
<glyph name="d" format="1">
  <advance width="1428"/>
  <unicode hex="0064"/>
  <outline>
    <contour>
      <point x="497" y="-18" type="curve"/>
      <point x="193" y="-18"/>
      <point x="32" y="246"/>
      <point x="32" y="550" type="curve" smooth="yes"/>
      <point x="32" y="835"/>
      <point x="202" y="1091"/>
      <point x="489" y="1091" type="curve" smooth="yes"/>
      <point x="633" y="1091"/>
      <point x="721" y="1040"/>
      <point x="800" y="960" type="curve"/>
      <point x="800" y="1222" type="line"/>
      <point x="640" y="1222" type="line"/>
      <point x="640" y="1495" type="line"/>
      <point x="1280" y="1560" type="line"/>
      <point x="1280" y="301" type="line"/>
      <point x="1408" y="301" type="line"/>
      <point x="1408" y="0" type="line"/>
      <point x="792" y="0" type="line"/>
      <point x="792" y="128" type="line"/>
      <point x="731" y="47"/>
      <point x="629" y="-17"/>
    </contour>
    <contour>
      <point x="480" y="551" type="curve" smooth="yes"/>
      <point x="480" y="396"/>
      <point x="535" y="274"/>
      <point x="657" y="274" type="curve" smooth="yes"/>
      <point x="725" y="274"/>
      <point x="778" y="315"/>
      <point x="800" y="350" type="curve"/>
      <point x="800" y="729" type="line"/>
      <point x="773" y="760"/>
      <point x="717" y="799"/>
      <point x="657" y="799" type="curve" smooth="yes"/>
      <point x="557" y="799"/>
      <point x="480" y="718"/>
    </contour>
    <contour>
      <point x="715" y="1008" type="line" smooth="yes"/>
    </contour>
    <contour>
      <point x="715" y="0" type="line" smooth="yes"/>
    </contour>
    <contour>
      <point x="714" y="536" type="move" name="center"/>
    </contour>
  </outline>
</glyph>
<glyph name="e" format="1">
  <advance width="1231"/>
  <unicode hex="0065"/>
  <outline>
    <contour>
      <point x="640" y="-18" type="curve" smooth="yes"/>
      <point x="873" y="-18"/>
      <point x="1008" y="30"/>
      <point x="1152" y="117" type="curve"/>
      <point x="1152" y="375" type="line"/>
      <point x="896" y="375" type="line"/>
      <point x="873" y="280"/>
      <point x="800" y="210"/>
      <point x="704" y="210" type="curve" smooth="yes"/>
      <point x="576" y="210"/>
      <point x="512" y="342"/>
      <point x="512" y="473" type="curve"/>
      <point x="1136" y="473" type="line"/>
      <point x="1136" y="473"/>
      <point x="1152" y="531"/>
      <point x="1152" y="576" type="curve" smooth="yes"/>
      <point x="1152" y="891"/>
      <point x="934" y="1091"/>
      <point x="608" y="1091" type="curve" smooth="yes"/>
      <point x="258" y="1091"/>
      <point x="32" y="881"/>
      <point x="32" y="542" type="curve" smooth="yes"/>
      <point x="32" y="201"/>
      <point x="265" y="-18"/>
    </contour>
    <contour>
      <point x="512" y="649" type="line"/>
      <point x="512" y="678" type="line" smooth="yes"/>
      <point x="512" y="754"/>
      <point x="565" y="843"/>
      <point x="640" y="843" type="curve" smooth="yes"/>
      <point x="729" y="843"/>
      <point x="768" y="758"/>
      <point x="768" y="670" type="curve" smooth="yes"/>
      <point x="768" y="649" type="line"/>
    </contour>
    <contour>
      <point x="589" y="1008" type="line" smooth="yes"/>
    </contour>
    <contour>
      <point x="589" y="0" type="line" smooth="yes"/>
    </contour>
    <contour>
      <point x="616" y="1072" type="move" name="top"/>
    </contour>
    <contour>
      <point x="616" y="0" type="move" name="bottom"/>
    </contour>
    <contour>
      <point x="1108" y="10" type="move" name="ogonek"/>
    </contour>
  </outline>
</glyph>
<glyph name="f" format="1">
  <advance width="960"/>
  <unicode hex="0066"/>
  <outline>
    <contour>
      <point x="224" y="1167" type="line" smooth="yes"/>
      <point x="224" y="1436"/>
      <point x="343" y="1570"/>
      <point x="581" y="1570" type="curve" smooth="yes"/>
      <point x="692" y="1570"/>
      <point x="826" y="1546"/>
      <point x="896" y="1523" type="curve"/>
      <point x="896" y="1229" type="line"/>
      <point x="845" y="1238"/>
      <point x="826" y="1242"/>
      <point x="792" y="1242" type="curve" smooth="yes"/>
      <point x="722" y="1242"/>
      <point x="704" y="1180"/>
      <point x="704" y="1107" type="curve" smooth="yes"/>
      <point x="704" y="1072" type="line"/>
      <point x="896" y="1072" type="line"/>
      <point x="896" y="779" type="line"/>
      <point x="704" y="779" type="line"/>
      <point x="704" y="301" type="line"/>
      <point x="896" y="301" type="line"/>
      <point x="896" y="0" type="line"/>
      <point x="64" y="0" type="line"/>
      <point x="64" y="301" type="line"/>
      <point x="224" y="301" type="line"/>
      <point x="224" y="779" type="line"/>
      <point x="64" y="779" type="line"/>
      <point x="64" y="1072" type="line"/>
      <point x="224" y="1072" type="line"/>
    </contour>
    <contour>
      <point x="489" y="1008" type="line" smooth="yes"/>
    </contour>
    <contour>
      <point x="489" y="0" type="line" smooth="yes"/>
    </contour>
  </outline>
</glyph>
<glyph name="g" format="1">
  <advance width="1424"/>
  <unicode hex="0067"/>
  <outline>
    <contour>
      <point x="795" y="117" type="curve"/>
      <point x="794" y="-68"/>
      <point x="687" y="-122"/>
      <point x="553" y="-122" type="curve" smooth="yes"/>
      <point x="424" y="-122"/>
      <point x="269" y="-71"/>
      <point x="162" y="-39" type="curve"/>
      <point x="162" y="-328" type="line"/>
      <point x="320" y="-369"/>
      <point x="473" y="-390"/>
      <point x="612" y="-390" type="curve" smooth="yes"/>
      <point x="999" y="-390"/>
      <point x="1280" y="-226"/>
      <point x="1280" y="135" type="curve" smooth="yes"/>
      <point x="1280" y="761" type="line"/>
      <point x="1376" y="761" type="line"/>
      <point x="1376" y="1072" type="line"/>
      <point x="866" y="1072" type="line"/>
      <point x="795" y="922" type="line"/>
      <point x="738" y="1003"/>
      <point x="638" y="1091"/>
      <point x="480" y="1091" type="curve" smooth="yes"/>
      <point x="184" y="1091"/>
      <point x="32" y="839"/>
      <point x="32" y="541" type="curve" smooth="yes"/>
      <point x="32" y="252"/>
      <point x="179" y="0"/>
      <point x="480" y="0" type="curve" smooth="yes"/>
      <point x="626" y="0"/>
      <point x="733" y="61"/>
    </contour>
    <contour>
      <point x="480" y="535" type="curve" smooth="yes"/>
      <point x="480" y="699"/>
      <point x="551" y="799"/>
      <point x="660" y="799" type="curve" smooth="yes"/>
      <point x="730" y="799"/>
      <point x="777" y="767"/>
      <point x="800" y="725" type="curve"/>
      <point x="800" y="360" type="line"/>
      <point x="790" y="325"/>
      <point x="735" y="274"/>
      <point x="668" y="274" type="curve" smooth="yes"/>
      <point x="542" y="274"/>
      <point x="480" y="382"/>
    </contour>
    <contour>
      <point x="714" y="1008" type="line" smooth="yes"/>
    </contour>
    <contour>
      <point x="714" y="0" type="line" smooth="yes"/>
    </contour>
    <contour>
      <point x="712" y="1072" type="move" name="top"/>
    </contour>
  </outline>
</glyph>
<glyph name="h" format="1">
  <advance width="1472"/>
  <unicode hex="0068"/>
  <outline>
    <contour>
      <point x="961" y="1091" type="curve" smooth="yes"/>
      <point x="1197" y="1091"/>
      <point x="1312" y="944"/>
      <point x="1312" y="702" type="curve" smooth="yes"/>
      <point x="1312" y="301" type="line"/>
      <point x="1440" y="301" type="line"/>
      <point x="1440" y="0" type="line"/>
      <point x="832" y="0" type="line"/>
      <point x="832" y="654" type="line" smooth="yes"/>
      <point x="832" y="737"/>
      <point x="804" y="790"/>
      <point x="749" y="790" type="curve" smooth="yes"/>
      <point x="682" y="790"/>
      <point x="640" y="740"/>
      <point x="640" y="661" type="curve" smooth="yes"/>
      <point x="640" y="301" type="line"/>
      <point x="736" y="301" type="line"/>
      <point x="736" y="0" type="line"/>
      <point x="32" y="0" type="line"/>
      <point x="32" y="301" type="line"/>
      <point x="160" y="301" type="line"/>
      <point x="160" y="1222" type="line"/>
      <point x="32" y="1222" type="line"/>
      <point x="32" y="1495" type="line"/>
      <point x="640" y="1560" type="line"/>
      <point x="640" y="916" type="line"/>
      <point x="689" y="1004"/>
      <point x="795" y="1091"/>
    </contour>
    <contour>
      <point x="728" y="1008" type="line" smooth="yes"/>
    </contour>
    <contour>
      <point x="728" y="0" type="line" smooth="yes"/>
    </contour>
    <contour>
      <point x="736" y="1072" type="move" name="top"/>
    </contour>
    <contour>
      <point x="736" y="536" type="move" name="center"/>
    </contour>
  </outline>
</glyph>
<glyph name="i" format="1">
  <advance width="864"/>
  <unicode hex="0069"/>
  <outline>
    <contour>
      <point x="64" y="0" type="line"/>
      <point x="800" y="0" type="line"/>
      <point x="800" y="301" type="line"/>
      <point x="672" y="301" type="line"/>
      <point x="672" y="1072" type="line"/>
      <point x="64" y="1008" type="line"/>
      <point x="64" y="761" type="line"/>
      <point x="192" y="761" type="line"/>
      <point x="192" y="301" type="line"/>
      <point x="64" y="301" type="line"/>
    </contour>
    <contour>
      <point x="384" y="1135" type="curve" smooth="yes"/>
      <point x="542" y="1135"/>
      <point x="672" y="1229"/>
      <point x="672" y="1385" type="curve" smooth="yes"/>
      <point x="672" y="1542"/>
      <point x="546" y="1630"/>
      <point x="385" y="1630" type="curve" smooth="yes"/>
      <point x="228" y="1630"/>
      <point x="96" y="1540"/>
      <point x="96" y="1385" type="curve" smooth="yes"/>
      <point x="96" y="1230"/>
      <point x="229" y="1135"/>
    </contour>
    <contour>
      <point x="426" y="1008" type="line" smooth="yes"/>
    </contour>
    <contour>
      <point x="426" y="0" type="line" smooth="yes"/>
    </contour>
  </outline>
</glyph>
<glyph name="j" format="1">
  <advance width="736"/>
  <unicode hex="006A"/>
  <outline>
    <contour>
      <point x="384" y="1135" type="curve" smooth="yes"/>
      <point x="542" y="1135"/>
      <point x="672" y="1229"/>
      <point x="672" y="1385" type="curve" smooth="yes"/>
      <point x="672" y="1542"/>
      <point x="546" y="1630"/>
      <point x="385" y="1630" type="curve" smooth="yes"/>
      <point x="228" y="1630"/>
      <point x="96" y="1540"/>
      <point x="96" y="1385" type="curve" smooth="yes"/>
      <point x="96" y="1230"/>
      <point x="229" y="1135"/>
    </contour>
    <contour>
      <point x="192" y="0" type="curve" smooth="yes"/>
      <point x="192" y="761" type="line"/>
      <point x="32" y="761" type="line"/>
      <point x="32" y="1008" type="line"/>
      <point x="672" y="1072" type="line"/>
      <point x="672" y="81" type="line" smooth="yes"/>
      <point x="672" y="-317"/>
      <point x="449" y="-398"/>
      <point x="32" y="-398" type="curve"/>
      <point x="32" y="-92" type="line"/>
      <point x="64" y="-92" type="line" smooth="yes"/>
      <point x="160" y="-92"/>
      <point x="192" y="-56"/>
    </contour>
    <contour>
      <point x="361" y="1008" type="line" smooth="yes"/>
    </contour>
    <contour>
      <point x="361" y="0" type="line" smooth="yes"/>
    </contour>
  </outline>
</glyph>
<glyph name="k" format="1">
  <advance width="1509"/>
  <unicode hex="006B"/>
  <outline>
    <contour>
      <point x="64" y="0" type="line"/>
      <point x="672" y="0" type="line"/>
      <point x="672" y="438" type="line"/>
      <point x="964" y="0" type="line"/>
      <point x="1440" y="0" type="line"/>
      <point x="1440" y="301" type="line"/>
      <point x="1282" y="301" type="line"/>
      <point x="1075" y="618" type="line"/>
      <point x="1076" y="618"/>
      <point x="1248" y="762"/>
      <point x="1248" y="761" type="curve"/>
      <point x="1408" y="761" type="line"/>
      <point x="1408" y="1072" type="line"/>
      <point x="768" y="1072" type="line"/>
      <point x="768" y="761" type="line"/>
      <point x="880" y="761" type="line"/>
      <point x="672" y="587" type="line"/>
      <point x="672" y="1560" type="line"/>
      <point x="64" y="1495" type="line"/>
      <point x="64" y="1222" type="line"/>
      <point x="192" y="1222" type="line"/>
      <point x="192" y="301" type="line"/>
      <point x="64" y="301" type="line"/>
    </contour>
    <contour>
      <point x="724" y="0" type="move" name="bottom"/>
    </contour>
  </outline>
</glyph>
<glyph name="l" format="1">
  <advance width="800"/>
  <unicode hex="006C"/>
  <outline>
    <contour>
      <point x="640" y="301" type="line"/>
      <point x="640" y="1560" type="line"/>
      <point x="32" y="1495" type="line"/>
      <point x="32" y="1222" type="line"/>
      <point x="160" y="1222" type="line"/>
      <point x="160" y="301" type="line"/>
      <point x="32" y="301" type="line"/>
      <point x="32" y="0" type="line"/>
      <point x="768" y="0" type="line"/>
      <point x="768" y="301" type="line"/>
    </contour>
    <contour>
      <point x="394" y="1008" type="line" smooth="yes"/>
    </contour>
    <contour>
      <point x="394" y="0" type="line" smooth="yes"/>
    </contour>
    <contour>
      <point x="400" y="1072" type="move" name="top"/>
    </contour>
    <contour>
      <point x="400" y="0" type="move" name="bottom"/>
    </contour>
    <contour>
      <point x="780" y="1072" type="move" name="topright"/>
    </contour>
  </outline>
</glyph>
<glyph name="m" format="1">
  <advance width="2200"/>
  <unicode hex="006D"/>
  <outline>
    <contour>
      <point x="85" y="0" type="line"/>
      <point x="757" y="0" type="line"/>
      <point x="757" y="301" type="line"/>
      <point x="661" y="301" type="line"/>
      <point x="661" y="582" type="line" smooth="yes"/>
      <point x="661" y="671"/>
      <point x="692" y="779"/>
      <point x="781" y="779" type="curve" smooth="yes"/>
      <point x="856" y="779"/>
      <point x="885" y="741"/>
      <point x="885" y="674" type="curve" smooth="yes"/>
      <point x="885" y="0" type="line"/>
      <point x="1429" y="0" type="line"/>
      <point x="1429" y="301" type="line"/>
      <point x="1333" y="301" type="line"/>
      <point x="1333" y="615" type="line" smooth="yes"/>
      <point x="1333" y="702"/>
      <point x="1371" y="779"/>
      <point x="1460" y="779" type="curve" smooth="yes"/>
      <point x="1524" y="779"/>
      <point x="1551" y="731"/>
      <point x="1557" y="671" type="curve"/>
      <point x="1557" y="0" type="line"/>
      <point x="2133" y="0" type="line"/>
      <point x="2133" y="301" type="line"/>
      <point x="2005" y="301" type="line"/>
      <point x="2005" y="729" type="line" smooth="yes"/>
      <point x="2005" y="958"/>
      <point x="1860" y="1091"/>
      <point x="1635" y="1091" type="curve" smooth="yes"/>
      <point x="1492" y="1091"/>
      <point x="1399" y="1025"/>
      <point x="1309" y="891" type="curve"/>
      <point x="1262" y="996"/>
      <point x="1153" y="1091"/>
      <point x="1018" y="1091" type="curve" smooth="yes"/>
      <point x="850" y="1091"/>
      <point x="734" y="1003"/>
      <point x="661" y="902" type="curve"/>
      <point x="661" y="1091" type="line"/>
      <point x="85" y="1032" type="line"/>
      <point x="85" y="761" type="line"/>
      <point x="213" y="761" type="line"/>
      <point x="213" y="301" type="line"/>
      <point x="85" y="301" type="line"/>
    </contour>
  </outline>
</glyph>
<glyph name="n" format="1">
  <advance width="1472"/>
  <unicode hex="006E"/>
  <outline>
    <contour>
      <point x="32" y="0" type="line"/>
      <point x="736" y="0" type="line"/>
      <point x="736" y="301" type="line"/>
      <point x="640" y="301" type="line"/>
      <point x="640" y="666" type="line" smooth="yes"/>
      <point x="640" y="728"/>
      <point x="690" y="791"/>
      <point x="752" y="791" type="curve" smooth="yes"/>
      <point x="806" y="791"/>
      <point x="832" y="738"/>
      <point x="832" y="681" type="curve" smooth="yes"/>
      <point x="832" y="0" type="line"/>
      <point x="1440" y="0" type="line"/>
      <point x="1440" y="301" type="line"/>
      <point x="1312" y="301" type="line"/>
      <point x="1312" y="680" type="line" smooth="yes"/>
      <point x="1312" y="955"/>
      <point x="1217" y="1091"/>
      <point x="997" y="1091" type="curve" smooth="yes"/>
      <point x="830" y="1091"/>
      <point x="708" y="1021"/>
      <point x="640" y="916" type="curve"/>
      <point x="640" y="1091" type="line"/>
      <point x="32" y="1032" type="line"/>
      <point x="32" y="761" type="line"/>
      <point x="160" y="761" type="line"/>
      <point x="160" y="301" type="line"/>
      <point x="32" y="301" type="line"/>
    </contour>
    <contour>
      <point x="721" y="1008" type="line" smooth="yes"/>
    </contour>
    <contour>
      <point x="721" y="0" type="line" smooth="yes"/>
    </contour>
    <contour>
      <point x="736" y="1072" type="move" name="top"/>
    </contour>
    <contour>
      <point x="736" y="0" type="move" name="bottom"/>
    </contour>
  </outline>
</glyph>
<glyph name="o" format="1">
  <advance width="1312"/>
  <unicode hex="006F"/>
  <outline>
    <contour>
      <point x="656" y="274" type="curve" smooth="yes"/>
      <point x="571" y="274"/>
      <point x="528" y="352"/>
      <point x="528" y="546" type="curve" smooth="yes"/>
      <point x="528" y="724"/>
      <point x="567" y="799"/>
      <point x="656" y="799" type="curve" smooth="yes"/>
      <point x="745" y="799"/>
      <point x="784" y="724"/>
      <point x="784" y="546" type="curve" smooth="yes"/>
      <point x="784" y="352"/>
      <point x="740" y="274"/>
    </contour>
    <contour>
      <point x="656" y="1091" type="curve" smooth="yes"/>
      <point x="296" y="1091"/>
      <point x="48" y="902"/>
      <point x="48" y="547" type="curve" smooth="yes"/>
      <point x="48" y="187"/>
      <point x="295" y="-18"/>
      <point x="656" y="-18" type="curve" smooth="yes"/>
      <point x="1017" y="-18"/>
      <point x="1264" y="187"/>
      <point x="1264" y="547" type="curve" smooth="yes"/>
      <point x="1264" y="902"/>
      <point x="1016" y="1091"/>
    </contour>
    <contour>
      <point x="649" y="1008" type="line" smooth="yes"/>
    </contour>
    <contour>
      <point x="649" y="0" type="line" smooth="yes"/>
    </contour>
    <contour>
      <point x="656" y="1072" type="move" name="top"/>
    </contour>
  </outline>
</glyph>
<glyph name="r" format="1">
  <advance width="999"/>
  <unicode hex="0072"/>
  <outline>
    <contour>
      <point x="647" y="1092" type="line"/>
      <point x="647" y="917" type="line"/>
      <point x="714" y="1026"/>
      <point x="861" y="1091"/>
      <point x="961" y="1091" type="curve"/>
      <point x="961" y="667" type="line"/>
      <point x="917" y="679"/>
      <point x="878" y="684"/>
      <point x="844" y="684" type="curve" smooth="yes"/>
      <point x="681" y="684"/>
      <point x="629" y="551"/>
      <point x="629" y="426" type="curve" smooth="yes"/>
      <point x="629" y="301" type="line"/>
      <point x="766" y="301" type="line"/>
      <point x="766" y="0" type="line"/>
      <point x="45" y="0" type="line"/>
      <point x="45" y="301" type="line"/>
      <point x="161" y="301" type="line"/>
      <point x="161" y="761" type="line"/>
      <point x="44" y="761" type="line"/>
      <point x="44" y="1032" type="line"/>
    </contour>
    <contour>
      <point x="502" y="1008" type="line" smooth="yes"/>
    </contour>
    <contour>
      <point x="502" y="0" type="line" smooth="yes"/>
    </contour>
    <contour>
      <point x="500" y="1072" type="move" name="top"/>
    </contour>
    <contour>
      <point x="500" y="0" type="move" name="bottom"/>
    </contour>
  </outline>
</glyph>
<glyph name="t" format="1">
  <advance width="954"/>
  <unicode hex="0074"/>
  <outline>
    <contour>
      <point x="578" y="-18" type="curve" smooth="yes"/>
      <point x="668" y="-18"/>
      <point x="770" y="-2"/>
      <point x="864" y="41" type="curve"/>
      <point x="864" y="320" type="line"/>
      <point x="840" y="316"/>
      <point x="820" y="314"/>
      <point x="790" y="314" type="curve" smooth="yes"/>
      <point x="723" y="314"/>
      <point x="672" y="357"/>
      <point x="672" y="418" type="curve" smooth="yes"/>
      <point x="672" y="779" type="line"/>
      <point x="864" y="779" type="line"/>
      <point x="864" y="1072" type="line"/>
      <point x="672" y="1072" type="line"/>
      <point x="672" y="1406" type="line"/>
      <point x="192" y="1301" type="line"/>
      <point x="192" y="1072" type="line"/>
      <point x="32" y="1072" type="line"/>
      <point x="32" y="779" type="line"/>
      <point x="192" y="779" type="line"/>
      <point x="192" y="382" type="line" smooth="yes"/>
      <point x="192" y="115"/>
      <point x="317" y="-18"/>
    </contour>
    <contour>
      <point x="456" y="536" type="move" name="center"/>
    </contour>
    <contour>
      <point x="456" y="0" type="move" name="bottom"/>
    </contour>
  </outline>
</glyph>
<glyph name="w" format="1">
  <advance width="1997"/>
  <unicode hex="0077"/>
  <outline>
    <contour>
      <point x="1410" y="761" type="line"/>
      <point x="1410" y="1072" type="line"/>
      <point x="1960" y="1072" type="line"/>
      <point x="1960" y="761" type="line"/>
      <point x="1825" y="761" type="line"/>
      <point x="1599" y="0" type="line"/>
      <point x="1124" y="0" type="line"/>
      <point x="994" y="430" type="line"/>
      <point x="843" y="0" type="line"/>
      <point x="399" y="0" type="line"/>
      <point x="161" y="761" type="line"/>
      <point x="28" y="761" type="line"/>
      <point x="28" y="1072" type="line"/>
      <point x="736" y="1072" type="line"/>
      <point x="736" y="761" type="line"/>
      <point x="642" y="761" type="line"/>
      <point x="735" y="392" type="line"/>
      <point x="945" y="1072" type="line"/>
      <point x="1211" y="1072" type="line"/>
      <point x="1429" y="379" type="line"/>
      <point x="1528" y="761" type="line"/>
    </contour>
    <contour>
      <point x="1019" y="1008" type="line" smooth="yes"/>
    </contour>
    <contour>
      <point x="1019" y="0" type="line" smooth="yes"/>
    </contour>
    <contour>
      <point x="999" y="1072" type="move" name="top"/>
    </contour>
  </outline>
</glyph>
<glyph name="x" format="1">
  <advance width="1254"/>
  <unicode hex="0078"/>
  <outline>
    <contour>
      <point x="1210" y="0" type="line"/>
      <point x="1210" y="301" type="line"/>
      <point x="1079" y="301" type="line"/>
      <point x="886" y="580" type="line"/>
      <point x="1049" y="761" type="line"/>
      <point x="1179" y="761" type="line"/>
      <point x="1179" y="1072" type="line"/>
      <point x="905" y="1072" type="line"/>
      <point x="720" y="821" type="line"/>
      <point x="558" y="1072" type="line"/>
      <point x="64" y="1072" type="line"/>
      <point x="64" y="761" type="line"/>
      <point x="193" y="761" type="line"/>
      <point x="375" y="512" type="line"/>
      <point x="195" y="301" type="line"/>
      <point x="44" y="301" type="line"/>
      <point x="44" y="0" type="line"/>
      <point x="341" y="0" type="line"/>
      <point x="548" y="277" type="line"/>
      <point x="737" y="0" type="line"/>
    </contour>
    <contour>
      <point x="627" y="1008" type="line" smooth="yes"/>
    </contour>
    <contour>
      <point x="627" y="0" type="line" smooth="yes"/>
    </contour>
  </outline>
</glyph>
<glyph name="y" format="1">
  <advance width="1547"/>
  <unicode hex="0079"/>
  <outline>
    <contour>
      <point x="400" y="-377" type="line"/>
      <point x="1091" y="-377" type="line"/>
      <point x="1091" y="-62" type="line"/>
      <point x="939" y="-62" type="line"/>
      <point x="1374" y="761" type="line"/>
      <point x="1483" y="761" type="line"/>
      <point x="1483" y="1072" type="line"/>
      <point x="923" y="1072" type="line"/>
      <point x="923" y="761" type="line"/>
      <point x="1033" y="761" type="line"/>
      <point x="881" y="454" type="line"/>
      <point x="715" y="761" type="line"/>
      <point x="813" y="761" type="line"/>
      <point x="813" y="1072" type="line"/>
      <point x="63" y="1072" type="line"/>
      <point x="63" y="761" type="line"/>
      <point x="191" y="761" type="line"/>
      <point x="657" y="31" type="line"/>
      <point x="602" y="-62" type="line"/>
      <point x="400" y="-62" type="line"/>
    </contour>
    <contour>
      <point x="738" y="1072" type="move" name="top"/>
    </contour>
  </outline>
</glyph>
<glyph name="z" format="1">
  <advance width="1248"/>
  <unicode hex="007A"/>
  <outline>
    <contour>
      <point x="82" y="0" type="line"/>
      <point x="1167" y="0" type="line"/>
      <point x="1167" y="451" type="line"/>
      <point x="984" y="451" type="line"/>
      <point x="949" y="294" type="line"/>
      <point x="662" y="294" type="line"/>
      <point x="1131" y="795" type="line"/>
      <point x="1131" y="1072" type="line"/>
      <point x="109" y="1072" type="line"/>
      <point x="109" y="636" type="line"/>
      <point x="306" y="636" type="line"/>
      <point x="370" y="779" type="line"/>
      <point x="576" y="779" type="line"/>
      <point x="82" y="283" type="line"/>
    </contour>
    <contour>
      <point x="604" y="1072" type="move" name="top"/>
    </contour>
  </outline>
</glyph>
<glyph name="braceleft" format="1">
  <advance width="858"/>
  <unicode hex="007B"/>
  <outline>
    <contour>
      <point x="12" y="965" type="line"/>
      <point x="12" y="722" type="line"/>
      <point x="123" y="718"/>
      <point x="177" y="670"/>
      <point x="177" y="559" type="curve" smooth="yes"/>
      <point x="177" y="480"/>
      <point x="190" y="406"/>
      <point x="216" y="338" type="curve" smooth="yes"/>
      <point x="302" y="114"/>
      <point x="508" y="-18"/>
      <point x="822" y="-18" type="curve"/>
      <point x="822" y="313" type="line"/>
      <point x="714" y="313"/>
      <point x="660" y="395"/>
      <point x="660" y="559" type="curve" smooth="yes"/>
      <point x="660" y="686"/>
      <point x="576" y="780"/>
      <point x="409" y="841" type="curve"/>
      <point x="576" y="903"/>
      <point x="660" y="998"/>
      <point x="660" y="1125" type="curve" smooth="yes"/>
      <point x="660" y="1289"/>
      <point x="714" y="1371"/>
      <point x="822" y="1371" type="curve"/>
      <point x="822" y="1702" type="line"/>
      <point x="610" y="1702"/>
      <point x="435" y="1637"/>
      <point x="332" y="1529" type="curve" smooth="yes"/>
      <point x="240" y="1433"/>
      <point x="176" y="1301"/>
      <point x="176" y="1125" type="curve" smooth="yes"/>
      <point x="176" y="1014"/>
      <point x="122" y="966"/>
      <point x="11" y="962" type="curve"/>
    </contour>
  </outline>
</glyph>
<glyph name="sterling" format="1">
  <advance width="1235"/>
  <unicode hex="00A3"/>
  <outline>
    <contour>
      <point x="325" y="-20" type="curve" smooth="yes"/>
      <point x="484" y="-20"/>
      <point x="598" y="37"/>
      <point x="667" y="152" type="curve"/>
      <point x="667" y="38"/>
      <point x="752" y="-19"/>
      <point x="921" y="-19" type="curve" smooth="yes"/>
      <point x="1011" y="-19"/>
      <point x="1102" y="-3"/>
      <point x="1193" y="28" type="curve"/>
      <point x="1193" y="339" type="line"/>
      <point x="1127" y="333"/>
      <point x="1069" y="330"/>
      <point x="1018" y="330" type="curve" smooth="yes"/>
      <point x="961" y="330"/>
      <point x="908" y="333"/>
      <point x="859" y="339" type="curve" smooth="yes"/>
      <point x="810" y="345"/>
      <point x="775" y="350"/>
      <point x="754" y="355" type="curve"/>
      <point x="723" y="365" type="line"/>
      <point x="723" y="519" type="line"/>
      <point x="723" y="760" type="line"/>
      <point x="976" y="760" type="line"/>
      <point x="976" y="993" type="line"/>
      <point x="723" y="993" type="line"/>
      <point x="723" y="1117" type="line" smooth="yes"/>
      <point x="723" y="1171"/>
      <point x="743" y="1209"/>
      <point x="782" y="1231" type="curve" smooth="yes"/>
      <point x="821" y="1253"/>
      <point x="878" y="1264"/>
      <point x="952" y="1264" type="curve" smooth="yes"/>
      <point x="1009" y="1264"/>
      <point x="1078" y="1260"/>
      <point x="1159" y="1251" type="curve"/>
      <point x="1159" y="1562" type="line"/>
      <point x="1071" y="1593"/>
      <point x="965" y="1608"/>
      <point x="842" y="1608" type="curve" smooth="yes"/>
      <point x="784" y="1608"/>
      <point x="728" y="1604"/>
      <point x="673" y="1595" type="curve" smooth="yes"/>
      <point x="618" y="1586"/>
      <point x="564" y="1571"/>
      <point x="512" y="1551" type="curve" smooth="yes"/>
      <point x="460" y="1531"/>
      <point x="415" y="1506"/>
      <point x="377" y="1476" type="curve" smooth="yes"/>
      <point x="339" y="1446"/>
      <point x="308" y="1408"/>
      <point x="284" y="1362" type="curve" smooth="yes"/>
      <point x="260" y="1316"/>
      <point x="248" y="1264"/>
      <point x="248" y="1207" type="curve" smooth="yes"/>
      <point x="248" y="993" type="line"/>
      <point x="124" y="993" type="line"/>
      <point x="124" y="760" type="line"/>
      <point x="248" y="760" type="line"/>
      <point x="248" y="520" type="line" smooth="yes"/>
      <point x="248" y="447"/>
      <point x="240" y="396"/>
      <point x="224" y="368" type="curve" smooth="yes"/>
      <point x="208" y="340"/>
      <point x="179" y="326"/>
      <point x="138" y="326" type="curve" smooth="yes"/>
      <point x="113" y="326"/>
      <point x="81" y="330"/>
      <point x="42" y="339" type="curve"/>
      <point x="42" y="28" type="line"/>
      <point x="156" y="-4"/>
      <point x="250" y="-20"/>
    </contour>
  </outline>
</glyph>
<glyph name="section" format="1">
  <advance width="1016"/>
  <unicode hex="00A7"/>
  <outline>
    <contour>
      <point x="40" y="837" type="line"/>
      <point x="40" y="798"/>
      <point x="50" y="761"/>
      <point x="69" y="726" type="curve" smooth="yes"/>
      <point x="88" y="691"/>
      <point x="113" y="660"/>
      <point x="144" y="633" type="curve" smooth="yes"/>
      <point x="175" y="606"/>
      <point x="209" y="580"/>
      <point x="246" y="556" type="curve" smooth="yes"/>
      <point x="283" y="532"/>
      <point x="320" y="509"/>
      <point x="357" y="488" type="curve" smooth="yes"/>
      <point x="394" y="467"/>
      <point x="428" y="446"/>
      <point x="459" y="425" type="curve" smooth="yes"/>
      <point x="490" y="404"/>
      <point x="515" y="382"/>
      <point x="534" y="358" type="curve" smooth="yes"/>
      <point x="553" y="334"/>
      <point x="563" y="310"/>
      <point x="563" y="286" type="curve" smooth="yes"/>
      <point x="563" y="261"/>
      <point x="554" y="242"/>
      <point x="536" y="229" type="curve" smooth="yes"/>
      <point x="518" y="216"/>
      <point x="498" y="209"/>
      <point x="475" y="209" type="curve" smooth="yes"/>
      <point x="428" y="209"/>
      <point x="388" y="226"/>
      <point x="355" y="260" type="curve" smooth="yes"/>
      <point x="322" y="294"/>
      <point x="302" y="334"/>
      <point x="294" y="379" type="curve"/>
      <point x="73" y="379" type="line"/>
      <point x="73" y="1" type="line"/>
      <point x="243" y="1" type="line"/>
      <point x="279" y="68" type="line"/>
      <point x="314" y="33"/>
      <point x="355" y="10"/>
      <point x="402" y="-1" type="curve" smooth="yes"/>
      <point x="449" y="-12"/>
      <point x="504" y="-18"/>
      <point x="567" y="-18" type="curve" smooth="yes"/>
      <point x="667" y="-18"/>
      <point x="751" y="14"/>
      <point x="820" y="78" type="curve" smooth="yes"/>
      <point x="889" y="142"/>
      <point x="923" y="214"/>
      <point x="923" y="295" type="curve" smooth="yes"/>
      <point x="923" y="402"/>
      <point x="869" y="488"/>
      <point x="762" y="553" type="curve"/>
      <point x="829" y="573"/>
      <point x="881" y="611"/>
      <point x="918" y="666" type="curve" smooth="yes"/>
      <point x="955" y="721"/>
      <point x="974" y="783"/>
      <point x="974" y="852" type="curve" smooth="yes"/>
      <point x="974" y="892"/>
      <point x="964" y="930"/>
      <point x="945" y="966" type="curve" smooth="yes"/>
      <point x="926" y="1002"/>
      <point x="901" y="1034"/>
      <point x="870" y="1061" type="curve" smooth="yes"/>
      <point x="839" y="1088"/>
      <point x="805" y="1113"/>
      <point x="768" y="1137" type="curve" smooth="yes"/>
      <point x="731" y="1161"/>
      <point x="694" y="1183"/>
      <point x="657" y="1203" type="curve" smooth="yes"/>
      <point x="620" y="1223"/>
      <point x="586" y="1242"/>
      <point x="555" y="1260" type="curve" smooth="yes"/>
      <point x="524" y="1278"/>
      <point x="499" y="1297"/>
      <point x="480" y="1316" type="curve" smooth="yes"/>
      <point x="461" y="1335"/>
      <point x="451" y="1354"/>
      <point x="451" y="1373" type="curve" smooth="yes"/>
      <point x="451" y="1401"/>
      <point x="459" y="1423"/>
      <point x="476" y="1439" type="curve" smooth="yes"/>
      <point x="493" y="1455"/>
      <point x="512" y="1463"/>
      <point x="533" y="1463" type="curve" smooth="yes"/>
      <point x="552" y="1463"/>
      <point x="571" y="1456"/>
      <point x="590" y="1443" type="curve" smooth="yes"/>
      <point x="609" y="1430"/>
      <point x="624" y="1413"/>
      <point x="635" y="1392" type="curve"/>
      <point x="678" y="1297" type="line"/>
      <point x="879" y="1297" type="line"/>
      <point x="879" y="1620" type="line"/>
      <point x="711" y="1620" type="line"/>
      <point x="684" y="1569" type="line"/>
      <point x="682" y="1571"/>
      <point x="679" y="1573"/>
      <point x="675" y="1576" type="curve" smooth="yes"/>
      <point x="671" y="1579"/>
      <point x="661" y="1584"/>
      <point x="645" y="1591" type="curve" smooth="yes"/>
      <point x="629" y="1598"/>
      <point x="612" y="1605"/>
      <point x="594" y="1611" type="curve" smooth="yes"/>
      <point x="576" y="1617"/>
      <point x="551" y="1622"/>
      <point x="520" y="1627" type="curve" smooth="yes"/>
      <point x="489" y="1632"/>
      <point x="456" y="1634"/>
      <point x="421" y="1634" type="curve" smooth="yes"/>
      <point x="322" y="1634"/>
      <point x="239" y="1607"/>
      <point x="171" y="1552" type="curve" smooth="yes"/>
      <point x="103" y="1497"/>
      <point x="69" y="1430"/>
      <point x="69" y="1351" type="curve" smooth="yes"/>
      <point x="69" y="1258"/>
      <point x="124" y="1172"/>
      <point x="234" y="1093" type="curve"/>
      <point x="173" y="1071"/>
      <point x="124" y="1036"/>
      <point x="87" y="989" type="curve" smooth="yes"/>
      <point x="50" y="942"/>
      <point x="31" y="890"/>
      <point x="31" y="833" type="curve"/>
    </contour>
    <contour>
      <point x="452" y="984" type="line"/>
      <point x="515" y="965"/>
      <point x="568" y="941"/>
      <point x="612" y="911" type="curve" smooth="yes"/>
      <point x="656" y="881"/>
      <point x="678" y="850"/>
      <point x="678" y="817" type="curve" smooth="yes"/>
      <point x="678" y="766"/>
      <point x="649" y="722"/>
      <point x="592" y="685" type="curve"/>
      <point x="521" y="714"/>
      <point x="463" y="745"/>
      <point x="417" y="778" type="curve" smooth="yes"/>
      <point x="371" y="811"/>
      <point x="348" y="843"/>
      <point x="348" y="875" type="curve" smooth="yes"/>
      <point x="348" y="915"/>
      <point x="382" y="952"/>
      <point x="450" y="985" type="curve"/>
    </contour>
  </outline>
</glyph>
<glyph name="copyright" format="1">
  <advance width="1770"/>
  <unicode hex="00A9"/>
  <outline>
    <contour>
      <point x="1254" y="396" type="line"/>
      <point x="1254" y="656" type="line"/>
      <point x="1063" y="656" type="line"/>
      <point x="1062" y="625"/>
      <point x="1060" y="605"/>
      <point x="1058" y="596" type="curve" smooth="yes"/>
      <point x="1051" y="562"/>
      <point x="1035" y="535"/>
      <point x="1009" y="515" type="curve" smooth="yes"/>
      <point x="983" y="495"/>
      <point x="953" y="485"/>
      <point x="918" y="485" type="curve" smooth="yes"/>
      <point x="901" y="485"/>
      <point x="885" y="487"/>
      <point x="871" y="491" type="curve" smooth="yes"/>
      <point x="857" y="495"/>
      <point x="845" y="500"/>
      <point x="835" y="506" type="curve" smooth="yes"/>
      <point x="825" y="512"/>
      <point x="816" y="521"/>
      <point x="808" y="533" type="curve" smooth="yes"/>
      <point x="800" y="545"/>
      <point x="793" y="556"/>
      <point x="788" y="566" type="curve" smooth="yes"/>
      <point x="783" y="576"/>
      <point x="778" y="589"/>
      <point x="774" y="606" type="curve" smooth="yes"/>
      <point x="770" y="623"/>
      <point x="767" y="636"/>
      <point x="765" y="646" type="curve" smooth="yes"/>
      <point x="763" y="656"/>
      <point x="762" y="671"/>
      <point x="761" y="690" type="curve" smooth="yes"/>
      <point x="760" y="709"/>
      <point x="759" y="723"/>
      <point x="759" y="731" type="curve" smooth="yes"/>
      <point x="759" y="772" type="line" smooth="yes"/>
      <point x="759" y="808" type="line" smooth="yes"/>
      <point x="759" y="831"/>
      <point x="759" y="851"/>
      <point x="760" y="868" type="curve" smooth="yes"/>
      <point x="761" y="885"/>
      <point x="763" y="905"/>
      <point x="766" y="929" type="curve" smooth="yes"/>
      <point x="769" y="953"/>
      <point x="774" y="973"/>
      <point x="781" y="989" type="curve" smooth="yes"/>
      <point x="788" y="1005"/>
      <point x="797" y="1021"/>
      <point x="808" y="1037" type="curve" smooth="yes"/>
      <point x="819" y="1053"/>
      <point x="833" y="1065"/>
      <point x="850" y="1073" type="curve" smooth="yes"/>
      <point x="867" y="1081"/>
      <point x="887" y="1085"/>
      <point x="910" y="1085" type="curve" smooth="yes"/>
      <point x="945" y="1085"/>
      <point x="974" y="1075"/>
      <point x="997" y="1054" type="curve" smooth="yes"/>
      <point x="1020" y="1033"/>
      <point x="1036" y="1009"/>
      <point x="1045" y="982" type="curve" smooth="yes"/>
      <point x="1054" y="955"/>
      <point x="1058" y="926"/>
      <point x="1057" y="895" type="curve"/>
      <point x="1246" y="895" type="line"/>
      <point x="1246" y="1296" type="line"/>
      <point x="1049" y="1296" type="line"/>
      <point x="1027" y="1251" type="line"/>
      <point x="983" y="1294"/>
      <point x="907" y="1315"/>
      <point x="799" y="1315" type="curve" smooth="yes"/>
      <point x="740" y="1315"/>
      <point x="686" y="1305"/>
      <point x="637" y="1284" type="curve" smooth="yes"/>
      <point x="588" y="1263"/>
      <point x="547" y="1235"/>
      <point x="514" y="1200" type="curve" smooth="yes"/>
      <point x="481" y="1165"/>
      <point x="453" y="1124"/>
      <point x="430" y="1077" type="curve" smooth="yes"/>
      <point x="407" y="1030"/>
      <point x="391" y="981"/>
      <point x="381" y="930" type="curve" smooth="yes"/>
      <point x="371" y="879"/>
      <point x="366" y="827"/>
      <point x="366" y="774" type="curve" smooth="yes"/>
      <point x="366" y="611"/>
      <point x="408" y="482"/>
      <point x="492" y="387" type="curve" smooth="yes"/>
      <point x="576" y="292"/>
      <point x="696" y="245"/>
      <point x="853" y="245" type="curve" smooth="yes"/>
      <point x="897" y="245"/>
      <point x="941" y="250"/>
      <point x="985" y="260" type="curve" smooth="yes"/>
      <point x="1029" y="270"/>
      <point x="1066" y="282"/>
      <point x="1097" y="296" type="curve" smooth="yes"/>
      <point x="1128" y="310"/>
      <point x="1156" y="324"/>
      <point x="1181" y="338" type="curve" smooth="yes"/>
      <point x="1206" y="352"/>
      <point x="1224" y="364"/>
      <point x="1236" y="374" type="curve"/>
    </contour>
    <contour>
      <point x="110" y="1106" type="line"/>
      <point x="66" y="1006"/>
      <point x="44" y="901"/>
      <point x="44" y="792" type="curve" smooth="yes"/>
      <point x="44" y="683"/>
      <point x="66" y="578"/>
      <point x="110" y="478" type="curve" smooth="yes"/>
      <point x="154" y="378"/>
      <point x="214" y="292"/>
      <point x="289" y="220" type="curve" smooth="yes"/>
      <point x="364" y="148"/>
      <point x="453" y="90"/>
      <point x="557" y="47" type="curve" smooth="yes"/>
      <point x="661" y="4"/>
      <point x="770" y="-18"/>
      <point x="884" y="-18" type="curve" smooth="yes"/>
      <point x="998" y="-18"/>
      <point x="1107" y="3"/>
      <point x="1211" y="46" type="curve" smooth="yes"/>
      <point x="1315" y="89"/>
      <point x="1404" y="147"/>
      <point x="1479" y="219" type="curve" smooth="yes"/>
      <point x="1554" y="291"/>
      <point x="1614" y="377"/>
      <point x="1658" y="477" type="curve" smooth="yes"/>
      <point x="1702" y="577"/>
      <point x="1724" y="682"/>
      <point x="1724" y="791" type="curve" smooth="yes"/>
      <point x="1724" y="900"/>
      <point x="1702" y="1005"/>
      <point x="1658" y="1105" type="curve" smooth="yes"/>
      <point x="1614" y="1205"/>
      <point x="1554" y="1291"/>
      <point x="1479" y="1363" type="curve" smooth="yes"/>
      <point x="1404" y="1435"/>
      <point x="1315" y="1493"/>
      <point x="1211" y="1536" type="curve" smooth="yes"/>
      <point x="1107" y="1579"/>
      <point x="998" y="1600"/>
      <point x="884" y="1600" type="curve" smooth="yes"/>
      <point x="770" y="1600"/>
      <point x="661" y="1578"/>
      <point x="557" y="1535" type="curve" smooth="yes"/>
      <point x="453" y="1492"/>
      <point x="364" y="1434"/>
      <point x="289" y="1362" type="curve" smooth="yes"/>
      <point x="214" y="1290"/>
      <point x="154" y="1204"/>
      <point x="109" y="1104" type="curve"/>
    </contour>
    <contour>
      <point x="883" y="1446" type="line" smooth="yes"/>
      <point x="1003" y="1446"/>
      <point x="1114" y="1417"/>
      <point x="1216" y="1358" type="curve" smooth="yes"/>
      <point x="1318" y="1299"/>
      <point x="1399" y="1219"/>
      <point x="1459" y="1118" type="curve" smooth="yes"/>
      <point x="1519" y="1017"/>
      <point x="1549" y="907"/>
      <point x="1549" y="788" type="curve" smooth="yes"/>
      <point x="1549" y="669"/>
      <point x="1519" y="559"/>
      <point x="1459" y="458" type="curve" smooth="yes"/>
      <point x="1399" y="357"/>
      <point x="1318" y="277"/>
      <point x="1216" y="218" type="curve" smooth="yes"/>
      <point x="1114" y="159"/>
      <point x="1003" y="130"/>
      <point x="883" y="130" type="curve" smooth="yes"/>
      <point x="793" y="130"/>
      <point x="707" y="147"/>
      <point x="625" y="182" type="curve" smooth="yes"/>
      <point x="543" y="217"/>
      <point x="472" y="264"/>
      <point x="412" y="323" type="curve" smooth="yes"/>
      <point x="352" y="382"/>
      <point x="304" y="452"/>
      <point x="269" y="533" type="curve" smooth="yes"/>
      <point x="234" y="614"/>
      <point x="216" y="699"/>
      <point x="216" y="788" type="curve" smooth="yes"/>
      <point x="216" y="877"/>
      <point x="234" y="962"/>
      <point x="269" y="1043" type="curve" smooth="yes"/>
      <point x="304" y="1124"/>
      <point x="351" y="1194"/>
      <point x="411" y="1253" type="curve" smooth="yes"/>
      <point x="471" y="1312"/>
      <point x="542" y="1359"/>
      <point x="624" y="1394" type="curve" smooth="yes"/>
      <point x="706" y="1429"/>
      <point x="792" y="1446"/>
      <point x="882" y="1446" type="curve" smooth="yes"/>
    </contour>
  </outline>
</glyph>
<glyph name="guillemotleft" format="1">
  <advance width="1314"/>
  <unicode hex="00AB"/>
  <outline>
    <contour>
      <point x="475" y="-5" type="line"/>
      <point x="666" y="219" type="line"/>
      <point x="351" y="534" type="line"/>
      <point x="666" y="849" type="line"/>
      <point x="475" y="1073" type="line"/>
      <point x="49" y="669" type="line"/>
      <point x="49" y="399" type="line"/>
    </contour>
    <contour>
      <point x="1085" y="-5" type="line"/>
      <point x="1276" y="219" type="line"/>
      <point x="961" y="534" type="line"/>
      <point x="1276" y="849" type="line"/>
      <point x="1085" y="1073" type="line"/>
      <point x="659" y="669" type="line"/>
      <point x="659" y="399" type="line"/>
    </contour>
  </outline>
</glyph>
<glyph name="registered" format="1">
  <advance width="1770"/>
  <unicode hex="00AE"/>
  <outline>
    <contour>
      <point x="902" y="361" type="line"/>
      <point x="902" y="566" type="line"/>
      <point x="835" y="566" type="line"/>
      <point x="835" y="747" type="line"/>
      <point x="889" y="747" type="line" smooth="yes"/>
      <point x="931" y="747"/>
      <point x="959" y="736"/>
      <point x="973" y="713" type="curve" smooth="yes"/>
      <point x="987" y="690"/>
      <point x="994" y="656"/>
      <point x="994" y="611" type="curve" smooth="yes"/>
      <point x="994" y="502" type="line" smooth="yes"/>
      <point x="994" y="475"/>
      <point x="999" y="452"/>
      <point x="1008" y="433" type="curve" smooth="yes"/>
      <point x="1017" y="414"/>
      <point x="1028" y="400"/>
      <point x="1040" y="391" type="curve" smooth="yes"/>
      <point x="1052" y="382"/>
      <point x="1069" y="375"/>
      <point x="1092" y="370" type="curve" smooth="yes"/>
      <point x="1115" y="365"/>
      <point x="1134" y="362"/>
      <point x="1149" y="361" type="curve" smooth="yes"/>
      <point x="1164" y="360"/>
      <point x="1185" y="360"/>
      <point x="1212" y="360" type="curve" smooth="yes"/>
      <point x="1358" y="360" type="line"/>
      <point x="1358" y="559" type="line"/>
      <point x="1319" y="559"/>
      <point x="1294" y="563"/>
      <point x="1283" y="572" type="curve" smooth="yes"/>
      <point x="1272" y="581"/>
      <point x="1266" y="596"/>
      <point x="1266" y="618" type="curve" smooth="yes"/>
      <point x="1266" y="670" type="line" smooth="yes"/>
      <point x="1266" y="704"/>
      <point x="1254" y="732"/>
      <point x="1230" y="755" type="curve" smooth="yes"/>
      <point x="1206" y="778"/>
      <point x="1167" y="796"/>
      <point x="1112" y="809" type="curve"/>
      <point x="1176" y="820"/>
      <point x="1225" y="843"/>
      <point x="1260" y="878" type="curve" smooth="yes"/>
      <point x="1295" y="913"/>
      <point x="1312" y="957"/>
      <point x="1312" y="1011" type="curve" smooth="yes"/>
      <point x="1312" y="1100"/>
      <point x="1286" y="1164"/>
      <point x="1235" y="1203" type="curve" smooth="yes"/>
      <point x="1184" y="1242"/>
      <point x="1111" y="1262"/>
      <point x="1016" y="1262" type="curve" smooth="yes"/>
      <point x="452" y="1262" type="line"/>
      <point x="452" y="1058" type="line"/>
      <point x="538" y="1058" type="line"/>
      <point x="538" y="562" type="line"/>
      <point x="453" y="562" type="line"/>
      <point x="453" y="359" type="line"/>
      <point x="655" y="360"/>
      <point x="805" y="360"/>
      <point x="903" y="360" type="curve"/>
    </contour>
    <contour>
      <point x="110" y="1106" type="line"/>
      <point x="66" y="1006"/>
      <point x="44" y="901"/>
      <point x="44" y="792" type="curve" smooth="yes"/>
      <point x="44" y="683"/>
      <point x="66" y="578"/>
      <point x="110" y="478" type="curve" smooth="yes"/>
      <point x="154" y="378"/>
      <point x="214" y="292"/>
      <point x="289" y="220" type="curve" smooth="yes"/>
      <point x="364" y="148"/>
      <point x="453" y="90"/>
      <point x="557" y="47" type="curve" smooth="yes"/>
      <point x="661" y="4"/>
      <point x="770" y="-18"/>
      <point x="884" y="-18" type="curve" smooth="yes"/>
      <point x="998" y="-18"/>
      <point x="1107" y="3"/>
      <point x="1211" y="46" type="curve" smooth="yes"/>
      <point x="1315" y="89"/>
      <point x="1404" y="147"/>
      <point x="1479" y="219" type="curve" smooth="yes"/>
      <point x="1554" y="291"/>
      <point x="1614" y="377"/>
      <point x="1658" y="477" type="curve" smooth="yes"/>
      <point x="1702" y="577"/>
      <point x="1724" y="682"/>
      <point x="1724" y="791" type="curve" smooth="yes"/>
      <point x="1724" y="900"/>
      <point x="1702" y="1005"/>
      <point x="1658" y="1105" type="curve" smooth="yes"/>
      <point x="1614" y="1205"/>
      <point x="1554" y="1291"/>
      <point x="1479" y="1363" type="curve" smooth="yes"/>
      <point x="1404" y="1435"/>
      <point x="1315" y="1493"/>
      <point x="1211" y="1536" type="curve" smooth="yes"/>
      <point x="1107" y="1579"/>
      <point x="998" y="1600"/>
      <point x="884" y="1600" type="curve" smooth="yes"/>
      <point x="770" y="1600"/>
      <point x="661" y="1578"/>
      <point x="557" y="1535" type="curve" smooth="yes"/>
      <point x="453" y="1492"/>
      <point x="364" y="1434"/>
      <point x="289" y="1362" type="curve" smooth="yes"/>
      <point x="214" y="1290"/>
      <point x="154" y="1204"/>
      <point x="109" y="1104" type="curve"/>
    </contour>
    <contour>
      <point x="883" y="1446" type="line" smooth="yes"/>
      <point x="1003" y="1446"/>
      <point x="1114" y="1417"/>
      <point x="1216" y="1358" type="curve" smooth="yes"/>
      <point x="1318" y="1299"/>
      <point x="1399" y="1219"/>
      <point x="1459" y="1118" type="curve" smooth="yes"/>
      <point x="1519" y="1017"/>
      <point x="1549" y="907"/>
      <point x="1549" y="788" type="curve" smooth="yes"/>
      <point x="1549" y="669"/>
      <point x="1519" y="559"/>
      <point x="1459" y="458" type="curve" smooth="yes"/>
      <point x="1399" y="357"/>
      <point x="1318" y="277"/>
      <point x="1216" y="218" type="curve" smooth="yes"/>
      <point x="1114" y="159"/>
      <point x="1003" y="130"/>
      <point x="883" y="130" type="curve" smooth="yes"/>
      <point x="793" y="130"/>
      <point x="707" y="147"/>
      <point x="625" y="182" type="curve" smooth="yes"/>
      <point x="543" y="217"/>
      <point x="472" y="264"/>
      <point x="412" y="323" type="curve" smooth="yes"/>
      <point x="352" y="382"/>
      <point x="304" y="452"/>
      <point x="269" y="533" type="curve" smooth="yes"/>
      <point x="234" y="614"/>
      <point x="216" y="699"/>
      <point x="216" y="788" type="curve" smooth="yes"/>
      <point x="216" y="877"/>
      <point x="234" y="962"/>
      <point x="269" y="1043" type="curve" smooth="yes"/>
      <point x="304" y="1124"/>
      <point x="351" y="1194"/>
      <point x="411" y="1253" type="curve" smooth="yes"/>
      <point x="471" y="1312"/>
      <point x="542" y="1359"/>
      <point x="624" y="1394" type="curve" smooth="yes"/>
      <point x="706" y="1429"/>
      <point x="792" y="1446"/>
      <point x="882" y="1446" type="curve" smooth="yes"/>
    </contour>
    <contour>
      <point x="866" y="872" type="line"/>
      <point x="832" y="872" type="line"/>
      <point x="832" y="1068" type="line"/>
      <point x="900" y="1068" type="line" smooth="yes"/>
      <point x="933" y="1068"/>
      <point x="959" y="1059"/>
      <point x="978" y="1041" type="curve" smooth="yes"/>
      <point x="997" y="1023"/>
      <point x="1006" y="999"/>
      <point x="1006" y="970" type="curve" smooth="yes"/>
      <point x="1006" y="905"/>
      <point x="960" y="873"/>
      <point x="867" y="873" type="curve"/>
    </contour>
  </outline>
</glyph>
<glyph name="plusminus" format="1">
  <advance width="814"/>
  <unicode hex="00B1"/>
  <outline>
    <contour>
      <point x="285" y="278" type="line"/>
      <point x="540" y="278" type="line"/>
      <point x="540" y="517" type="line"/>
      <point x="765" y="517" type="line"/>
      <point x="765" y="762" type="line"/>
      <point x="540" y="762" type="line"/>
      <point x="540" y="1031" type="line"/>
      <point x="285" y="1031" type="line"/>
      <point x="285" y="762" type="line"/>
      <point x="53" y="762" type="line"/>
      <point x="53" y="517" type="line"/>
      <point x="285" y="517" type="line"/>
    </contour>
    <contour>
      <point x="83" y="-1" type="line"/>
      <point x="730" y="-1" type="line"/>
      <point x="730" y="223" type="line"/>
      <point x="83" y="223" type="line"/>
    </contour>
  </outline>
</glyph>
<glyph name="acute" format="1">
  <advance width="754"/>
  <unicode hex="00B4"/>
  <outline>
    <contour>
      <point x="706" y="1523" type="line"/>
      <point x="522" y="1788" type="line"/>
      <point x="48" y="1351" type="line"/>
      <point x="152" y="1210" type="line"/>
    </contour>
    <contour>
      <point x="377" y="1072" type="line" smooth="yes"/>
    </contour>
    <contour>
      <point x="377" y="1072" type="move" name="_top"/>
    </contour>
  </outline>
</glyph>
<glyph name="cedilla" format="1">
  <advance width="512"/>
  <unicode hex="00B8"/>
  <outline>
    <contour>
      <point x="137" y="0" type="line"/>
      <point x="316" y="0" type="line"/>
      <point x="316" y="-122" type="line"/>
      <point x="405" y="-173"/>
      <point x="449" y="-228"/>
      <point x="449" y="-287" type="curve" smooth="yes"/>
      <point x="449" y="-398"/>
      <point x="278" y="-487"/>
      <point x="81" y="-487" type="curve" smooth="yes"/>
      <point x="60" y="-487" type="line"/>
      <point x="60" y="-374" type="line"/>
      <point x="190" y="-372"/>
      <point x="247" y="-329"/>
      <point x="247" y="-272" type="curve" smooth="yes"/>
      <point x="247" y="-219"/>
      <point x="197" y="-152"/>
      <point x="137" y="-119" type="curve"/>
    </contour>
    <contour>
      <point x="254" y="0" type="line" smooth="yes"/>
    </contour>
    <contour>
      <point x="254.5" y="0" type="move" name="_bottom"/>
    </contour>
  </outline>
</glyph>
<glyph name="onesuperior" format="1">
  <advance width="535"/>
  <unicode hex="00B9"/>
  <outline>
    <contour>
      <point x="86" y="286" type="line"/>
      <point x="489" y="286" type="line"/>
      <point x="489" y="476" type="line"/>
      <point x="433" y="476" type="line"/>
      <point x="429" y="1091" type="line"/>
      <point x="42" y="993" type="line"/>
      <point x="42" y="842" type="line"/>
      <point x="138" y="843" type="line"/>
      <point x="138" y="476" type="line"/>
      <point x="85" y="476" type="line"/>
    </contour>
  </outline>
</glyph>
<glyph name="onequarter" format="1">
  <advance width="1726"/>
  <unicode hex="00BC"/>
  <outline>
    <contour>
      <point x="1184" y="1" type="line"/>
      <point x="1598" y="1" type="line"/>
      <point x="1598" y="170" type="line"/>
      <point x="1526" y="170" type="line"/>
      <point x="1526" y="247" type="line"/>
      <point x="1660" y="247" type="line"/>
      <point x="1660" y="398" type="line"/>
      <point x="1527" y="397" type="line"/>
      <point x="1527" y="788" type="line"/>
      <point x="1269" y="789" type="line"/>
      <point x="945" y="405" type="line"/>
      <point x="945" y="247" type="line"/>
      <point x="1258" y="247" type="line"/>
      <point x="1258" y="170" type="line"/>
      <point x="1184" y="170" type="line"/>
    </contour>
    <contour>
      <point x="101" y="818" type="line"/>
      <point x="504" y="818" type="line"/>
      <point x="504" y="1008" type="line"/>
      <point x="448" y="1008" type="line"/>
      <point x="444" y="1623" type="line"/>
      <point x="57" y="1525" type="line"/>
      <point x="57" y="1374" type="line"/>
      <point x="153" y="1375" type="line"/>
      <point x="153" y="1008" type="line"/>
      <point x="100" y="1008" type="line"/>
    </contour>
    <contour>
      <point x="338" y="0" type="line"/>
      <point x="691" y="0" type="line"/>
      <point x="1193" y="1623" type="line"/>
      <point x="829" y="1623" type="line"/>
    </contour>
    <contour>
      <point x="1258" y="398" type="line"/>
      <point x="1147" y="399" type="line"/>
      <point x="1258" y="536" type="line"/>
    </contour>
  </outline>
</glyph>
<glyph name="onehalf" format="1">
  <advance width="1741"/>
  <unicode hex="00BD"/>
  <outline>
    <contour>
      <point x="1013" y="-1" type="line"/>
      <point x="1701" y="-1" type="line"/>
      <point x="1701" y="283" type="line"/>
      <point x="1597" y="283" type="line"/>
      <point x="1597" y="249"/>
      <point x="1585" y="226"/>
      <point x="1562" y="214" type="curve" smooth="yes"/>
      <point x="1539" y="202"/>
      <point x="1507" y="195"/>
      <point x="1466" y="194" type="curve"/>
      <point x="1369" y="194" type="line"/>
      <point x="1479" y="277"/>
      <point x="1551" y="340"/>
      <point x="1585" y="384" type="curve" smooth="yes"/>
      <point x="1628" y="438"/>
      <point x="1649" y="496"/>
      <point x="1649" y="558" type="curve" smooth="yes"/>
      <point x="1649" y="642"/>
      <point x="1619" y="708"/>
      <point x="1560" y="756" type="curve" smooth="yes"/>
      <point x="1501" y="804"/>
      <point x="1426" y="830"/>
      <point x="1335" y="833" type="curve" smooth="yes"/>
      <point x="1280" y="835"/>
      <point x="1226" y="826"/>
      <point x="1174" y="807" type="curve" smooth="yes"/>
      <point x="1122" y="788"/>
      <point x="1078" y="757"/>
      <point x="1042" y="715" type="curve" smooth="yes"/>
      <point x="1006" y="673"/>
      <point x="988" y="624"/>
      <point x="988" y="569" type="curve"/>
      <point x="986" y="478"/>
      <point x="1016" y="405"/>
      <point x="1077" y="350" type="curve"/>
      <point x="1214" y="455" type="line"/>
      <point x="1189" y="478"/>
      <point x="1176" y="504"/>
      <point x="1176" y="532" type="curve" smooth="yes"/>
      <point x="1176" y="557"/>
      <point x="1183" y="577"/>
      <point x="1197" y="593" type="curve" smooth="yes"/>
      <point x="1211" y="609"/>
      <point x="1231" y="617"/>
      <point x="1257" y="617" type="curve" smooth="yes"/>
      <point x="1278" y="617"/>
      <point x="1296" y="607"/>
      <point x="1312" y="588" type="curve" smooth="yes"/>
      <point x="1328" y="569"/>
      <point x="1337" y="544"/>
      <point x="1339" y="513" type="curve"/>
      <point x="1339" y="480"/>
      <point x="1332" y="449"/>
      <point x="1318" y="420" type="curve" smooth="yes"/>
      <point x="1304" y="391"/>
      <point x="1289" y="368"/>
      <point x="1273" y="352" type="curve" smooth="yes"/>
      <point x="1257" y="336"/>
      <point x="1234" y="315"/>
      <point x="1203" y="289" type="curve" smooth="yes"/>
      <point x="1151" y="246"/>
      <point x="1086" y="209"/>
      <point x="1009" y="178" type="curve"/>
    </contour>
    <contour>
      <point x="78" y="818" type="line"/>
      <point x="481" y="818" type="line"/>
      <point x="481" y="1008" type="line"/>
      <point x="425" y="1008" type="line"/>
      <point x="421" y="1623" type="line"/>
      <point x="34" y="1525" type="line"/>
      <point x="34" y="1374" type="line"/>
      <point x="130" y="1375" type="line"/>
      <point x="130" y="1008" type="line"/>
      <point x="77" y="1008" type="line"/>
    </contour>
    <contour>
      <point x="323" y="0" type="line"/>
      <point x="676" y="0" type="line"/>
      <point x="1178" y="1623" type="line"/>
      <point x="814" y="1623" type="line"/>
    </contour>
  </outline>
</glyph>
<glyph name="threequarters" format="1">
  <advance width="1778"/>
  <unicode hex="00BE"/>
  <outline>
    <contour>
      <point x="51" y="1081" type="line"/>
      <point x="51" y="878" type="line"/>
      <point x="86" y="855"/>
      <point x="126" y="840"/>
      <point x="170" y="833" type="curve" smooth="yes"/>
      <point x="214" y="826"/>
      <point x="267" y="822"/>
      <point x="329" y="822" type="curve" smooth="yes"/>
      <point x="446" y="822"/>
      <point x="539" y="847"/>
      <point x="607" y="897" type="curve" smooth="yes"/>
      <point x="675" y="947"/>
      <point x="709" y="1018"/>
      <point x="709" y="1110" type="curve" smooth="yes"/>
      <point x="709" y="1165"/>
      <point x="689" y="1214"/>
      <point x="649" y="1258" type="curve" smooth="yes"/>
      <point x="609" y="1302"/>
      <point x="560" y="1326"/>
      <point x="503" y="1331" type="curve"/>
      <point x="614" y="1422"/>
      <point x="670" y="1468"/>
      <point x="670" y="1469" type="curve" smooth="yes"/>
      <point x="670" y="1623" type="line"/>
      <point x="44" y="1623" type="line"/>
      <point x="44" y="1358" type="line"/>
      <point x="157" y="1357" type="line"/>
      <point x="162" y="1375"/>
      <point x="165" y="1387"/>
      <point x="167" y="1393" type="curve" smooth="yes"/>
      <point x="169" y="1399"/>
      <point x="173" y="1407"/>
      <point x="179" y="1417" type="curve" smooth="yes"/>
      <point x="185" y="1427"/>
      <point x="192" y="1433"/>
      <point x="201" y="1436" type="curve" smooth="yes"/>
      <point x="210" y="1439"/>
      <point x="222" y="1440"/>
      <point x="237" y="1440" type="curve" smooth="yes"/>
      <point x="365" y="1440" type="line"/>
      <point x="365" y="1434" type="line"/>
      <point x="165" y="1264" type="line"/>
      <point x="165" y="1171" type="line"/>
      <point x="166" y="1168" type="line"/>
      <point x="168" y="1167"/>
      <point x="172" y="1166"/>
      <point x="177" y="1166" type="curve" smooth="yes"/>
      <point x="180" y="1166"/>
      <point x="189" y="1168"/>
      <point x="205" y="1172" type="curve" smooth="yes"/>
      <point x="221" y="1176"/>
      <point x="237" y="1178"/>
      <point x="252" y="1178" type="curve" smooth="yes"/>
      <point x="291" y="1178"/>
      <point x="325" y="1170"/>
      <point x="354" y="1155" type="curve" smooth="yes"/>
      <point x="383" y="1140"/>
      <point x="398" y="1115"/>
      <point x="398" y="1080" type="curve" smooth="yes"/>
      <point x="398" y="1050"/>
      <point x="385" y="1028"/>
      <point x="358" y="1014" type="curve" smooth="yes"/>
      <point x="331" y="1000"/>
      <point x="301" y="993"/>
      <point x="267" y="993" type="curve" smooth="yes"/>
      <point x="193" y="993"/>
      <point x="121" y="1022"/>
      <point x="50" y="1079" type="curve"/>
    </contour>
    <contour>
      <point x="1609" y="166" type="line"/>
      <point x="1609" y="243" type="line"/>
      <point x="1743" y="243" type="line"/>
      <point x="1743" y="394" type="line"/>
      <point x="1610" y="393" type="line"/>
      <point x="1610" y="784" type="line"/>
      <point x="1352" y="785" type="line"/>
      <point x="1028" y="401" type="line"/>
      <point x="1028" y="243" type="line"/>
      <point x="1341" y="243" type="line"/>
      <point x="1341" y="166" type="line"/>
      <point x="1267" y="166" type="line"/>
      <point x="1267" y="-3" type="line"/>
      <point x="1681" y="-3" type="line"/>
      <point x="1681" y="166" type="line"/>
    </contour>
    <contour>
      <point x="469" y="-2" type="line"/>
      <point x="822" y="-2" type="line"/>
      <point x="1324" y="1621" type="line"/>
      <point x="960" y="1621" type="line"/>
    </contour>
    <contour>
      <point x="1341" y="394" type="line"/>
      <point x="1230" y="395" type="line"/>
      <point x="1341" y="532" type="line"/>
    </contour>
  </outline>
</glyph>
<glyph name="AE" format="1">
  <advance width="2151"/>
  <unicode hex="00C6"/>
  <outline>
    <contour>
      <point x="1808" y="969" type="line"/>
      <point x="2076" y="970" type="line"/>
      <point x="2076" y="1623" type="line"/>
      <point x="506" y="1623" type="line"/>
      <point x="435" y="1274" type="line"/>
      <point x="647" y="1274" type="line"/>
      <point x="325" y="608" type="line" smooth="yes"/>
      <point x="307" y="566" type="line" smooth="yes"/>
      <point x="298" y="545"/>
      <point x="292" y="531"/>
      <point x="288" y="523" type="curve" smooth="yes"/>
      <point x="284" y="515"/>
      <point x="278" y="502"/>
      <point x="269" y="485" type="curve" smooth="yes"/>
      <point x="260" y="468"/>
      <point x="252" y="456"/>
      <point x="246" y="449" type="curve" smooth="yes"/>
      <point x="240" y="442"/>
      <point x="232" y="432"/>
      <point x="221" y="419" type="curve" smooth="yes"/>
      <point x="210" y="406"/>
      <point x="199" y="397"/>
      <point x="188" y="391" type="curve" smooth="yes"/>
      <point x="177" y="385"/>
      <point x="165" y="379"/>
      <point x="151" y="372" type="curve" smooth="yes"/>
      <point x="137" y="365"/>
      <point x="122" y="360"/>
      <point x="105" y="357" type="curve" smooth="yes"/>
      <point x="88" y="354"/>
      <point x="70" y="353"/>
      <point x="50" y="353" type="curve"/>
      <point x="50" y="-2" type="line"/>
      <point x="731" y="-1" type="line"/>
      <point x="731" y="375" type="line"/>
      <point x="647" y="375" type="line" smooth="yes"/>
      <point x="633" y="375"/>
      <point x="624" y="389"/>
      <point x="621" y="417" type="curve" smooth="yes"/>
      <point x="618" y="445"/>
      <point x="618" y="464"/>
      <point x="622" y="475" type="curve"/>
      <point x="625" y="489"/>
      <point x="628" y="500"/>
      <point x="630" y="507" type="curve" smooth="yes"/>
      <point x="632" y="514"/>
      <point x="636" y="521"/>
      <point x="642" y="528" type="curve" smooth="yes"/>
      <point x="648" y="535"/>
      <point x="655" y="538"/>
      <point x="664" y="538" type="curve" smooth="yes"/>
      <point x="939" y="538" type="line" smooth="yes"/>
      <point x="984" y="538"/>
      <point x="996" y="483"/>
      <point x="975" y="374" type="curve"/>
      <point x="855" y="374" type="line"/>
      <point x="856" y="-2" type="line"/>
      <point x="2085" y="-2" type="line"/>
      <point x="2085" y="685" type="line"/>
      <point x="1812" y="685" type="line"/>
      <point x="1749" y="418" type="line"/>
      <point x="1736" y="348" type="line"/>
      <point x="1517" y="348" type="line"/>
      <point x="1517" y="634" type="line"/>
      <point x="1722" y="634" type="line"/>
      <point x="1722" y="986" type="line"/>
      <point x="1517" y="986" type="line"/>
      <point x="1517" y="1269" type="line"/>
      <point x="1730" y="1269" type="line"/>
    </contour>
    <contour>
      <point x="967" y="769" type="line"/>
      <point x="728" y="769" type="line"/>
      <point x="968" y="1290" type="line"/>
    </contour>
    <contour>
      <point x="1076" y="1592" type="move" name="top"/>
    </contour>
  </outline>
</glyph>
<glyph name="Oslash" format="1">
  <advance width="1729"/>
  <unicode hex="00D8"/>
  <outline>
    <contour>
      <point x="866" y="1294" type="line"/>
      <point x="873" y="1294"/>
      <point x="883" y="1293"/>
      <point x="896" y="1292" type="curve"/>
      <point x="698" y="436" type="line"/>
      <point x="691" y="451"/>
      <point x="685" y="467"/>
      <point x="680" y="484" type="curve" smooth="yes"/>
      <point x="675" y="501"/>
      <point x="671" y="521"/>
      <point x="668" y="543" type="curve" smooth="yes"/>
      <point x="665" y="565"/>
      <point x="662" y="583"/>
      <point x="660" y="597" type="curve" smooth="yes"/>
      <point x="658" y="611"/>
      <point x="657" y="632"/>
      <point x="656" y="660" type="curve" smooth="yes"/>
      <point x="655" y="688"/>
      <point x="655" y="706"/>
      <point x="655" y="714" type="curve" smooth="yes"/>
      <point x="655" y="772" type="line"/>
      <point x="655" y="819" type="line"/>
      <point x="655" y="854" type="line"/>
      <point x="654" y="875"/>
      <point x="654" y="897"/>
      <point x="655" y="920" type="curve" smooth="yes"/>
      <point x="656" y="943"/>
      <point x="657" y="967"/>
      <point x="658" y="991" type="curve" smooth="yes"/>
      <point x="659" y="1015"/>
      <point x="661" y="1039"/>
      <point x="665" y="1063" type="curve" smooth="yes"/>
      <point x="669" y="1087"/>
      <point x="674" y="1110"/>
      <point x="680" y="1132" type="curve" smooth="yes"/>
      <point x="686" y="1154"/>
      <point x="694" y="1175"/>
      <point x="705" y="1194" type="curve" smooth="yes"/>
      <point x="716" y="1213"/>
      <point x="728" y="1230"/>
      <point x="742" y="1244" type="curve" smooth="yes"/>
      <point x="756" y="1258"/>
      <point x="773" y="1269"/>
      <point x="794" y="1277" type="curve" smooth="yes"/>
      <point x="815" y="1285"/>
      <point x="838" y="1289"/>
      <point x="864" y="1289" type="curve"/>
    </contour>
    <contour>
      <point x="864" y="312" type="line"/>
      <point x="852" y="312"/>
      <point x="843" y="312"/>
      <point x="838" y="313" type="curve"/>
      <point x="1032" y="1178" type="line"/>
      <point x="1039" y="1163"/>
      <point x="1045" y="1147"/>
      <point x="1050" y="1130" type="curve" smooth="yes"/>
      <point x="1055" y="1113"/>
      <point x="1059" y="1094"/>
      <point x="1062" y="1074" type="curve" smooth="yes"/>
      <point x="1065" y="1054"/>
      <point x="1067" y="1036"/>
      <point x="1069" y="1021" type="curve" smooth="yes"/>
      <point x="1071" y="1006"/>
      <point x="1072" y="987"/>
      <point x="1073" y="963" type="curve" smooth="yes"/>
      <point x="1074" y="939"/>
      <point x="1074" y="922"/>
      <point x="1074" y="911" type="curve" smooth="yes"/>
      <point x="1074" y="857" type="line" smooth="yes"/>
      <point x="1074" y="812" type="line" smooth="yes"/>
      <point x="1074" y="782" type="line"/>
      <point x="1075" y="759"/>
      <point x="1075" y="735"/>
      <point x="1074" y="710" type="curve" smooth="yes"/>
      <point x="1073" y="685"/>
      <point x="1072" y="659"/>
      <point x="1071" y="633" type="curve" smooth="yes"/>
      <point x="1070" y="607"/>
      <point x="1067" y="581"/>
      <point x="1063" y="555" type="curve" smooth="yes"/>
      <point x="1059" y="529"/>
      <point x="1054" y="504"/>
      <point x="1048" y="480" type="curve" smooth="yes"/>
      <point x="1042" y="456"/>
      <point x="1034" y="433"/>
      <point x="1023" y="412" type="curve" smooth="yes"/>
      <point x="1012" y="391"/>
      <point x="999" y="373"/>
      <point x="985" y="358" type="curve" smooth="yes"/>
      <point x="971" y="343"/>
      <point x="953" y="331"/>
      <point x="932" y="322" type="curve" smooth="yes"/>
      <point x="911" y="313"/>
      <point x="888" y="309"/>
      <point x="862" y="309" type="curve"/>
    </contour>
    <contour>
      <point x="560" y="-155" type="line"/>
      <point x="722" y="-194" type="line"/>
      <point x="760" y="-23" type="line"/>
      <point x="794" y="-27"/>
      <point x="829" y="-29"/>
      <point x="864" y="-29" type="curve" smooth="yes"/>
      <point x="1017" y="-29"/>
      <point x="1156" y="7"/>
      <point x="1281" y="80" type="curve" smooth="yes"/>
      <point x="1406" y="153"/>
      <point x="1504" y="253"/>
      <point x="1576" y="381" type="curve" smooth="yes"/>
      <point x="1648" y="509"/>
      <point x="1684" y="651"/>
      <point x="1684" y="808" type="curve" smooth="yes"/>
      <point x="1684" y="1015"/>
      <point x="1634" y="1189"/>
      <point x="1534" y="1330" type="curve" smooth="yes"/>
      <point x="1434" y="1471"/>
      <point x="1299" y="1566"/>
      <point x="1130" y="1616" type="curve"/>
      <point x="1166" y="1774" type="line"/>
      <point x="1013" y="1804" type="line"/>
      <point x="976" y="1646" type="line"/>
      <point x="934" y="1651"/>
      <point x="897" y="1653"/>
      <point x="865" y="1653" type="curve" smooth="yes"/>
      <point x="708" y="1653"/>
      <point x="568" y="1620"/>
      <point x="445" y="1553" type="curve" smooth="yes"/>
      <point x="322" y="1486"/>
      <point x="225" y="1388"/>
      <point x="153" y="1259" type="curve" smooth="yes"/>
      <point x="81" y="1130"/>
      <point x="45" y="979"/>
      <point x="45" y="807" type="curve" smooth="yes"/>
      <point x="45" y="618"/>
      <point x="96" y="452"/>
      <point x="198" y="308" type="curve" smooth="yes"/>
      <point x="300" y="164"/>
      <point x="434" y="65"/>
      <point x="600" y="10" type="curve"/>
    </contour>
    <contour>
      <point x="865" y="1592" type="move" name="top"/>
    </contour>
  </outline>
</glyph>
<glyph name="ae" format="1">
  <advance width="1990"/>
  <unicode hex="00E6"/>
  <outline>
    <contour>
      <point x="467" y="-28" type="curve" smooth="yes"/>
      <point x="598" y="-29"/>
      <point x="705" y="-20"/>
      <point x="788" y="-1" type="curve" smooth="yes"/>
      <point x="871" y="18"/>
      <point x="947" y="53"/>
      <point x="1016" y="104" type="curve"/>
      <point x="1111" y="17"/>
      <point x="1222" y="-26"/>
      <point x="1348" y="-26" type="curve" smooth="yes"/>
      <point x="1455" y="-26"/>
      <point x="1551" y="-15"/>
      <point x="1636" y="7" type="curve" smooth="yes"/>
      <point x="1721" y="29"/>
      <point x="1807" y="66"/>
      <point x="1895" y="119" type="curve"/>
      <point x="1895" y="357" type="line"/>
      <point x="1588" y="357" type="line"/>
      <point x="1587" y="308"/>
      <point x="1575" y="272"/>
      <point x="1553" y="249" type="curve" smooth="yes"/>
      <point x="1531" y="226"/>
      <point x="1496" y="214"/>
      <point x="1448" y="214" type="curve" smooth="yes"/>
      <point x="1393" y="214"/>
      <point x="1350" y="236"/>
      <point x="1318" y="280" type="curve" smooth="yes"/>
      <point x="1286" y="324"/>
      <point x="1270" y="377"/>
      <point x="1270" y="439" type="curve"/>
      <point x="1872" y="439" type="line" smooth="yes"/>
      <point x="1885" y="439"/>
      <point x="1893" y="440"/>
      <point x="1896" y="442" type="curve" smooth="yes"/>
      <point x="1899" y="444"/>
      <point x="1903" y="452"/>
      <point x="1909" y="466" type="curve"/>
      <point x="1912" y="496"/>
      <point x="1914" y="522"/>
      <point x="1914" y="545" type="curve" smooth="yes"/>
      <point x="1914" y="645"/>
      <point x="1893" y="735"/>
      <point x="1851" y="815" type="curve" smooth="yes"/>
      <point x="1809" y="895"/>
      <point x="1746" y="959"/>
      <point x="1661" y="1008" type="curve" smooth="yes"/>
      <point x="1576" y="1057"/>
      <point x="1476" y="1081"/>
      <point x="1361" y="1081" type="curve" smooth="yes"/>
      <point x="1319" y="1081"/>
      <point x="1278" y="1077"/>
      <point x="1239" y="1068" type="curve" smooth="yes"/>
      <point x="1200" y="1059"/>
      <point x="1168" y="1049"/>
      <point x="1142" y="1037" type="curve" smooth="yes"/>
      <point x="1116" y="1025"/>
      <point x="1093" y="1013"/>
      <point x="1073" y="1001" type="curve" smooth="yes"/>
      <point x="1053" y="989"/>
      <point x="1039" y="979"/>
      <point x="1030" y="970" type="curve" smooth="yes"/>
      <point x="1016" y="957" type="line"/>
      <point x="1013" y="960"/>
      <point x="1008" y="964"/>
      <point x="1001" y="969" type="curve" smooth="yes"/>
      <point x="994" y="974"/>
      <point x="979" y="984"/>
      <point x="956" y="998" type="curve" smooth="yes"/>
      <point x="933" y="1012"/>
      <point x="908" y="1024"/>
      <point x="882" y="1035" type="curve" smooth="yes"/>
      <point x="856" y="1046"/>
      <point x="822" y="1056"/>
      <point x="779" y="1065" type="curve" smooth="yes"/>
      <point x="736" y="1074"/>
      <point x="692" y="1078"/>
      <point x="647" y="1078" type="curve" smooth="yes"/>
      <point x="576" y="1078"/>
      <point x="500" y="1072"/>
      <point x="419" y="1060" type="curve" smooth="yes"/>
      <point x="338" y="1048"/>
      <point x="275" y="1036"/>
      <point x="230" y="1024" type="curve" smooth="yes"/>
      <point x="163" y="1007" type="line"/>
      <point x="163" y="693" type="line"/>
      <point x="338" y="693" type="line"/>
      <point x="386" y="756"/>
      <point x="458" y="788"/>
      <point x="553" y="788" type="curve" smooth="yes"/>
      <point x="694" y="788"/>
      <point x="764" y="733"/>
      <point x="764" y="622" type="curve" smooth="yes"/>
      <point x="764" y="577" type="line"/>
      <point x="691" y="602"/>
      <point x="606" y="615"/>
      <point x="509" y="615" type="curve" smooth="yes"/>
      <point x="454" y="615"/>
      <point x="401" y="608"/>
      <point x="350" y="594" type="curve" smooth="yes"/>
      <point x="299" y="580"/>
      <point x="253" y="560"/>
      <point x="212" y="534" type="curve" smooth="yes"/>
      <point x="171" y="508"/>
      <point x="138" y="474"/>
      <point x="113" y="432" type="curve" smooth="yes"/>
      <point x="88" y="390"/>
      <point x="75" y="343"/>
      <point x="75" y="292" type="curve"/>
      <point x="78" y="299" type="line"/>
      <point x="78" y="232"/>
      <point x="96" y="174"/>
      <point x="133" y="124" type="curve" smooth="yes"/>
      <point x="170" y="74"/>
      <point x="217" y="36"/>
      <point x="275" y="11" type="curve" smooth="yes"/>
      <point x="333" y="-14"/>
      <point x="397" y="-27"/>
    </contour>
    <contour>
      <point x="661" y="207" type="curve" smooth="yes"/>
      <point x="632" y="207"/>
      <point x="609" y="216"/>
      <point x="592" y="235" type="curve" smooth="yes"/>
      <point x="575" y="254"/>
      <point x="566" y="278"/>
      <point x="566" y="308" type="curve"/>
      <point x="565" y="310" type="line"/>
      <point x="565" y="339"/>
      <point x="575" y="365"/>
      <point x="596" y="388" type="curve" smooth="yes"/>
      <point x="617" y="411"/>
      <point x="642" y="422"/>
      <point x="671" y="422" type="curve" smooth="yes"/>
      <point x="686" y="422"/>
      <point x="701" y="420"/>
      <point x="717" y="416" type="curve" smooth="yes"/>
      <point x="733" y="412"/>
      <point x="746" y="408"/>
      <point x="755" y="405" type="curve" smooth="yes"/>
      <point x="769" y="400" type="line"/>
      <point x="769" y="253" type="line"/>
      <point x="757" y="241" type="line" smooth="yes"/>
      <point x="752" y="236"/>
      <point x="740" y="229"/>
      <point x="721" y="220" type="curve" smooth="yes"/>
      <point x="702" y="211"/>
      <point x="682" y="207"/>
    </contour>
    <contour>
      <point x="1485" y="609" type="curve"/>
      <point x="1270" y="611" type="line"/>
      <point x="1270" y="640" type="line" smooth="yes"/>
      <point x="1270" y="681"/>
      <point x="1279" y="717"/>
      <point x="1297" y="749" type="curve" smooth="yes"/>
      <point x="1315" y="781"/>
      <point x="1342" y="797"/>
      <point x="1378" y="797" type="curve" smooth="yes"/>
      <point x="1403" y="797"/>
      <point x="1423" y="791"/>
      <point x="1439" y="779" type="curve" smooth="yes"/>
      <point x="1455" y="767"/>
      <point x="1466" y="750"/>
      <point x="1472" y="728" type="curve" smooth="yes"/>
      <point x="1478" y="706"/>
      <point x="1482" y="686"/>
      <point x="1484" y="669" type="curve" smooth="yes"/>
      <point x="1486" y="652"/>
      <point x="1486" y="632"/>
    </contour>
    <contour>
      <point x="961" y="1072" type="move" name="top"/>
    </contour>
  </outline>
</glyph>
<glyph name="dotlessi" format="1">
  <advance width="746"/>
  <unicode hex="0131"/>
  <outline>
    <contour>
      <point x="614" y="299" type="line"/>
      <point x="614" y="1072" type="line"/>
      <point x="44" y="1008" type="line"/>
      <point x="44" y="747" type="line"/>
      <point x="133" y="747" type="line"/>
      <point x="133" y="299" type="line"/>
      <point x="51" y="299" type="line"/>
      <point x="51" y="0" type="line"/>
      <point x="698" y="0" type="line"/>
      <point x="698" y="299" type="line"/>
    </contour>
    <contour>
      <point x="375" y="1072" type="line" smooth="yes"/>
    </contour>
    <contour>
      <point x="373" y="1072" type="move" name="top"/>
    </contour>
    <contour>
      <point x="671" y="10" type="move" name="ogonek"/>
    </contour>
  </outline>
</glyph>
<glyph name="kgreenlandic" format="1">
  <advance width="1517"/>
  <unicode hex="0138"/>
  <outline>
    <contour>
      <point x="86" y="0" type="line"/>
      <point x="676" y="0" type="line"/>
      <point x="676" y="428" type="line"/>
      <point x="961" y="0" type="line"/>
      <point x="1434" y="0" type="line"/>
      <point x="1434" y="301" type="line"/>
      <point x="1279" y="301" type="line"/>
      <point x="1072" y="578" type="line"/>
      <point x="1073" y="578"/>
      <point x="1245" y="762"/>
      <point x="1245" y="761" type="curve"/>
      <point x="1416" y="761" type="line"/>
      <point x="1416" y="1072" type="line"/>
      <point x="782" y="1072" type="line"/>
      <point x="782" y="761" type="line"/>
      <point x="877" y="761" type="line"/>
      <point x="676" y="547" type="line"/>
      <point x="676" y="1072" type="line"/>
      <point x="85" y="1007" type="line"/>
      <point x="85" y="734" type="line"/>
      <point x="189" y="734" type="line"/>
      <point x="189" y="301" type="line"/>
      <point x="86" y="301" type="line"/>
    </contour>
  </outline>
</glyph>
<glyph name="Lslash" format="1">
  <advance width="1463"/>
  <unicode hex="0141"/>
  <outline>
    <contour>
      <point x="114" y="0" type="line"/>
      <point x="1387" y="0" type="line"/>
      <point x="1387" y="709" type="line"/>
      <point x="1101" y="709" type="line"/>
      <point x="1014" y="359" type="line"/>
      <point x="823" y="359" type="line"/>
      <point x="823" y="1270" type="line"/>
      <point x="977" y="1270" type="line"/>
      <point x="977" y="1622" type="line"/>
      <point x="109" y="1622" type="line"/>
      <point x="109" y="1270" type="line"/>
      <point x="256" y="1270" type="line"/>
      <point x="256" y="359" type="line"/>
      <point x="113" y="359" type="line"/>
    </contour>
    <contour>
      <point x="178" y="478" type="line"/>
      <point x="1046" y="981" type="line"/>
      <point x="947" y="1160" type="line"/>
      <point x="78" y="656" type="line"/>
    </contour>
  </outline>
</glyph>
<glyph name="lslash" format="1">
  <advance width="1024"/>
  <unicode hex="0142"/>
  <outline>
    <contour>
      <point x="191" y="0" type="line"/>
      <point x="838" y="0" type="line"/>
      <point x="838" y="305" type="line"/>
      <point x="760" y="305" type="line"/>
      <point x="760" y="861" type="line"/>
      <point x="970" y="974" type="line"/>
      <point x="871" y="1153" type="line"/>
      <point x="760" y="1093" type="line"/>
      <point x="760" y="1630" type="line"/>
      <point x="181" y="1630" type="line"/>
      <point x="181" y="1317" type="line"/>
      <point x="265" y="1317" type="line"/>
      <point x="265" y="828" type="line"/>
      <point x="59" y="718" type="line"/>
      <point x="159" y="540" type="line"/>
      <point x="265" y="596" type="line"/>
      <point x="265" y="305" type="line"/>
      <point x="191" y="305" type="line"/>
    </contour>
  </outline>
</glyph>
<glyph name="oe" format="1">
  <advance width="1910"/>
  <unicode hex="0153"/>
  <outline>
    <contour>
      <point x="635" y="-26" type="line"/>
      <point x="679" y="-26"/>
      <point x="721" y="-21"/>
      <point x="761" y="-11" type="curve" smooth="yes"/>
      <point x="801" y="-1"/>
      <point x="834" y="10"/>
      <point x="859" y="22" type="curve" smooth="yes"/>
      <point x="884" y="34"/>
      <point x="907" y="48"/>
      <point x="929" y="64" type="curve" smooth="yes"/>
      <point x="951" y="80"/>
      <point x="965" y="91"/>
      <point x="971" y="97" type="curve" smooth="yes"/>
      <point x="977" y="103"/>
      <point x="982" y="108"/>
      <point x="985" y="112" type="curve"/>
      <point x="997" y="97" type="line"/>
      <point x="1006" y="88"/>
      <point x="1019" y="76"/>
      <point x="1037" y="62" type="curve" smooth="yes"/>
      <point x="1055" y="48"/>
      <point x="1076" y="34"/>
      <point x="1100" y="20" type="curve" smooth="yes"/>
      <point x="1124" y="6"/>
      <point x="1154" y="-6"/>
      <point x="1190" y="-16" type="curve" smooth="yes"/>
      <point x="1226" y="-26"/>
      <point x="1264" y="-31"/>
      <point x="1303" y="-31" type="curve" smooth="yes"/>
      <point x="1410" y="-32"/>
      <point x="1506" y="-21"/>
      <point x="1591" y="1" type="curve" smooth="yes"/>
      <point x="1676" y="23"/>
      <point x="1763" y="61"/>
      <point x="1852" y="114" type="curve"/>
      <point x="1852" y="352" type="line"/>
      <point x="1545" y="352" type="line"/>
      <point x="1544" y="303"/>
      <point x="1532" y="267"/>
      <point x="1510" y="244" type="curve" smooth="yes"/>
      <point x="1488" y="221"/>
      <point x="1453" y="209"/>
      <point x="1405" y="209" type="curve" smooth="yes"/>
      <point x="1350" y="209"/>
      <point x="1307" y="231"/>
      <point x="1275" y="275" type="curve" smooth="yes"/>
      <point x="1243" y="319"/>
      <point x="1227" y="372"/>
      <point x="1227" y="434" type="curve"/>
      <point x="1829" y="434" type="line" smooth="yes"/>
      <point x="1840" y="434"/>
      <point x="1847" y="435"/>
      <point x="1850" y="436" type="curve" smooth="yes"/>
      <point x="1854" y="438"/>
      <point x="1859" y="447"/>
      <point x="1866" y="462" type="curve"/>
      <point x="1869" y="492"/>
      <point x="1871" y="518"/>
      <point x="1871" y="541" type="curve" smooth="yes"/>
      <point x="1871" y="641"/>
      <point x="1850" y="731"/>
      <point x="1808" y="811" type="curve" smooth="yes"/>
      <point x="1766" y="891"/>
      <point x="1703" y="955"/>
      <point x="1618" y="1004" type="curve" smooth="yes"/>
      <point x="1533" y="1053"/>
      <point x="1433" y="1077"/>
      <point x="1318" y="1077" type="curve" smooth="yes"/>
      <point x="1275" y="1077"/>
      <point x="1234" y="1072"/>
      <point x="1195" y="1063" type="curve" smooth="yes"/>
      <point x="1156" y="1054"/>
      <point x="1125" y="1044"/>
      <point x="1102" y="1033" type="curve" smooth="yes"/>
      <point x="1079" y="1022"/>
      <point x="1058" y="1009"/>
      <point x="1039" y="995" type="curve" smooth="yes"/>
      <point x="1020" y="981"/>
      <point x="1008" y="971"/>
      <point x="1003" y="965" type="curve" smooth="yes"/>
      <point x="998" y="959"/>
      <point x="994" y="954"/>
      <point x="991" y="951" type="curve"/>
      <point x="977" y="964" type="line" smooth="yes"/>
      <point x="968" y="973"/>
      <point x="953" y="983"/>
      <point x="933" y="995" type="curve" smooth="yes"/>
      <point x="913" y="1007"/>
      <point x="890" y="1019"/>
      <point x="864" y="1031" type="curve" smooth="yes"/>
      <point x="838" y="1043"/>
      <point x="804" y="1053"/>
      <point x="763" y="1062" type="curve" smooth="yes"/>
      <point x="722" y="1071"/>
      <point x="680" y="1075"/>
      <point x="636" y="1075" type="curve" smooth="yes"/>
      <point x="449" y="1075"/>
      <point x="302" y="1028"/>
      <point x="195" y="933" type="curve" smooth="yes"/>
      <point x="88" y="838"/>
      <point x="34" y="704"/>
      <point x="34" y="531" type="curve" smooth="yes"/>
      <point x="34" y="414"/>
      <point x="59" y="313"/>
      <point x="110" y="227" type="curve" smooth="yes"/>
      <point x="161" y="141"/>
      <point x="232" y="76"/>
      <point x="322" y="32" type="curve" smooth="yes"/>
      <point x="412" y="-12"/>
      <point x="516" y="-34"/>
      <point x="635" y="-34" type="curve"/>
    </contour>
    <contour>
      <point x="498" y="529" type="line"/>
      <point x="498" y="557"/>
      <point x="499" y="581"/>
      <point x="502" y="601" type="curve" smooth="yes"/>
      <point x="505" y="621"/>
      <point x="511" y="641"/>
      <point x="520" y="661" type="curve" smooth="yes"/>
      <point x="529" y="681"/>
      <point x="543" y="696"/>
      <point x="562" y="707" type="curve" smooth="yes"/>
      <point x="581" y="718"/>
      <point x="605" y="723"/>
      <point x="634" y="723" type="curve" smooth="yes"/>
      <point x="663" y="723"/>
      <point x="687" y="718"/>
      <point x="706" y="707" type="curve" smooth="yes"/>
      <point x="725" y="696"/>
      <point x="739" y="680"/>
      <point x="748" y="660" type="curve" smooth="yes"/>
      <point x="757" y="640"/>
      <point x="763" y="620"/>
      <point x="766" y="600" type="curve" smooth="yes"/>
      <point x="769" y="580"/>
      <point x="770" y="556"/>
      <point x="770" y="528" type="curve" smooth="yes"/>
      <point x="770" y="387"/>
      <point x="724" y="317"/>
      <point x="633" y="317" type="curve" smooth="yes"/>
      <point x="542" y="317"/>
      <point x="496" y="387"/>
      <point x="496" y="528" type="curve"/>
    </contour>
    <contour>
      <point x="1226" y="638" type="line" smooth="yes"/>
      <point x="1226" y="679"/>
      <point x="1235" y="715"/>
      <point x="1253" y="747" type="curve" smooth="yes"/>
      <point x="1271" y="779"/>
      <point x="1298" y="795"/>
      <point x="1334" y="795" type="curve" smooth="yes"/>
      <point x="1359" y="795"/>
      <point x="1379" y="789"/>
      <point x="1395" y="777" type="curve" smooth="yes"/>
      <point x="1411" y="765"/>
      <point x="1422" y="748"/>
      <point x="1428" y="726" type="curve" smooth="yes"/>
      <point x="1434" y="704"/>
      <point x="1438" y="684"/>
      <point x="1440" y="667" type="curve" smooth="yes"/>
      <point x="1442" y="650"/>
      <point x="1442" y="630"/>
      <point x="1441" y="607" type="curve"/>
      <point x="1226" y="607" type="line"/>
    </contour>
    <contour>
      <point x="955" y="1072" type="move" name="top"/>
    </contour>
  </outline>
</glyph>
<glyph name="caron" format="1">
  <advance width="924"/>
  <unicode hex="02C7"/>
  <outline>
    <contour>
      <point x="327" y="1250" type="line"/>
      <point x="598" y="1250" type="line"/>
      <point x="872" y="1626" type="line"/>
      <point x="718" y="1727" type="line"/>
      <point x="463" y="1482" type="line"/>
      <point x="208" y="1727" type="line"/>
      <point x="54" y="1626" type="line"/>
    </contour>
    <contour>
      <point x="463" y="1072" type="line" smooth="yes"/>
    </contour>
    <contour>
      <point x="463" y="1072" type="move" name="_top"/>
    </contour>
  </outline>
</glyph>
<glyph name="hungarumlaut" format="1">
  <advance width="1011"/>
  <unicode hex="02DD"/>
  <outline>
    <contour>
      <point x="219" y="1128" type="line"/>
      <point x="507" y="1695" type="line"/>
      <point x="207" y="1814" type="line"/>
      <point x="54" y="1188" type="line"/>
    </contour>
    <contour>
      <point x="538" y="1129" type="line"/>
      <point x="961" y="1604" type="line"/>
      <point x="701" y="1795" type="line"/>
      <point x="394" y="1228" type="line"/>
    </contour>
    <contour>
      <point x="507.5" y="1072" type="move" name="_top"/>
    </contour>
    <contour>
      <point x="507" y="1072" type="move"/>
    </contour>
  </outline>
</glyph>
<glyph name="uni030F" format="1">
  <advance width="1011"/>
  <unicode hex="030F"/>
  <outline>
    <contour>
      <point x="367" y="1229" type="line"/>
      <point x="527" y="1288" type="line"/>
      <point x="204" y="1895" type="line"/>
      <point x="-56" y="1704" type="line"/>
    </contour>
    <contour>
      <point x="686" y="1228" type="line"/>
      <point x="851" y="1288" type="line"/>
      <point x="698" y="1914" type="line"/>
      <point x="398" y="1795" type="line"/>
    </contour>
    <contour>
      <point x="507" y="1072" type="line" smooth="yes"/>
    </contour>
    <contour>
      <point x="397.5" y="1072" type="move" name="_top"/>
    </contour>
  </outline>
</glyph>
<glyph name="uni0311" format="1">
  <advance width="951"/>
  <unicode hex="0311"/>
  <outline>
    <contour>
      <point x="624" y="1243" type="curve"/>
      <point x="876" y="1243" type="line"/>
      <point x="876" y="1360"/>
      <point x="842" y="1452"/>
      <point x="773" y="1519" type="curve" smooth="yes"/>
      <point x="704" y="1586"/>
      <point x="604" y="1619"/>
      <point x="473" y="1619" type="curve"/>
      <point x="471" y="1621" type="line"/>
      <point x="338" y="1621"/>
      <point x="238" y="1588"/>
      <point x="170" y="1521" type="curve" smooth="yes"/>
      <point x="102" y="1454"/>
      <point x="68" y="1362"/>
      <point x="68" y="1244" type="curve"/>
      <point x="320" y="1244" type="line"/>
      <point x="320" y="1295"/>
      <point x="335" y="1334"/>
      <point x="365" y="1362" type="curve" smooth="yes"/>
      <point x="395" y="1390"/>
      <point x="431" y="1404"/>
      <point x="472" y="1404" type="curve" smooth="yes"/>
      <point x="513" y="1404"/>
      <point x="549" y="1390"/>
      <point x="579" y="1362" type="curve" smooth="yes"/>
      <point x="609" y="1334"/>
      <point x="624" y="1294"/>
    </contour>
  </outline>
</glyph>
<glyph name="uni0326" format="1">
  <advance width="593"/>
  <unicode hex="0326"/>
  <outline>
    <contour>
      <point x="35" y="-735" type="line"/>
      <point x="35" y="-960" type="line"/>
      <point x="218" y="-960"/>
      <point x="353" y="-917"/>
      <point x="440" y="-831" type="curve" smooth="yes"/>
      <point x="527" y="-745"/>
      <point x="570" y="-609"/>
      <point x="570" y="-424" type="curve" smooth="yes"/>
      <point x="570" y="-342"/>
      <point x="562" y="-250"/>
      <point x="546" y="-147" type="curve"/>
      <point x="36" y="-147" type="line"/>
      <point x="36" y="-513" type="line"/>
      <point x="225" y="-513" type="line"/>
      <point x="225" y="-541"/>
      <point x="225" y="-563"/>
      <point x="224" y="-578" type="curve" smooth="yes"/>
      <point x="223" y="-593"/>
      <point x="221" y="-611"/>
      <point x="217" y="-631" type="curve" smooth="yes"/>
      <point x="213" y="-651"/>
      <point x="207" y="-666"/>
      <point x="199" y="-677" type="curve" smooth="yes"/>
      <point x="191" y="-688"/>
      <point x="180" y="-699"/>
      <point x="166" y="-709" type="curve" smooth="yes"/>
      <point x="152" y="-719"/>
      <point x="134" y="-726"/>
      <point x="112" y="-730" type="curve" smooth="yes"/>
      <point x="90" y="-734"/>
      <point x="64" y="-736"/>
      <point x="34" y="-736" type="curve"/>
    </contour>
    <contour>
      <point x="302" y="0" type="line" smooth="yes"/>
    </contour>
    <contour>
      <point x="302" y="0" type="move" name="_bottom"/>
    </contour>
  </outline>
</glyph>
<glyph name="quotedblleft" format="1">
  <advance width="1282"/>
  <unicode hex="201C"/>
  <outline>
    <contour>
      <point x="76" y="838" type="curve"/>
      <point x="586" y="838" type="line"/>
      <point x="586" y="1204" type="line"/>
      <point x="397" y="1204" type="line"/>
      <point x="397" y="1232"/>
      <point x="397" y="1253"/>
      <point x="398" y="1268" type="curve" smooth="yes"/>
      <point x="399" y="1283"/>
      <point x="401" y="1300"/>
      <point x="405" y="1320" type="curve" smooth="yes"/>
      <point x="409" y="1340"/>
      <point x="415" y="1355"/>
      <point x="423" y="1366" type="curve" smooth="yes"/>
      <point x="431" y="1377"/>
      <point x="442" y="1387"/>
      <point x="456" y="1397" type="curve" smooth="yes"/>
      <point x="470" y="1407"/>
      <point x="488" y="1414"/>
      <point x="510" y="1418" type="curve" smooth="yes"/>
      <point x="532" y="1422"/>
      <point x="558" y="1424"/>
      <point x="588" y="1424" type="curve"/>
      <point x="587" y="1426" type="line"/>
      <point x="587" y="1651" type="line"/>
      <point x="404" y="1651"/>
      <point x="269" y="1608"/>
      <point x="182" y="1522" type="curve" smooth="yes"/>
      <point x="95" y="1436"/>
      <point x="52" y="1300"/>
      <point x="52" y="1115" type="curve" smooth="yes"/>
      <point x="52" y="1033"/>
      <point x="60" y="941"/>
    </contour>
    <contour>
      <point x="706" y="840" type="curve"/>
      <point x="1216" y="840" type="line"/>
      <point x="1216" y="1206" type="line"/>
      <point x="1027" y="1206" type="line"/>
      <point x="1027" y="1234"/>
      <point x="1027" y="1255"/>
      <point x="1028" y="1270" type="curve" smooth="yes"/>
      <point x="1029" y="1285"/>
      <point x="1031" y="1302"/>
      <point x="1035" y="1322" type="curve" smooth="yes"/>
      <point x="1039" y="1342"/>
      <point x="1045" y="1357"/>
      <point x="1053" y="1368" type="curve" smooth="yes"/>
      <point x="1061" y="1379"/>
      <point x="1072" y="1389"/>
      <point x="1086" y="1399" type="curve" smooth="yes"/>
      <point x="1100" y="1409"/>
      <point x="1118" y="1416"/>
      <point x="1140" y="1420" type="curve" smooth="yes"/>
      <point x="1162" y="1424"/>
      <point x="1188" y="1426"/>
      <point x="1218" y="1426" type="curve"/>
      <point x="1217" y="1428" type="line"/>
      <point x="1217" y="1653" type="line"/>
      <point x="1034" y="1653"/>
      <point x="899" y="1610"/>
      <point x="812" y="1524" type="curve" smooth="yes"/>
      <point x="725" y="1438"/>
      <point x="682" y="1302"/>
      <point x="682" y="1117" type="curve" smooth="yes"/>
      <point x="682" y="1035"/>
      <point x="690" y="943"/>
    </contour>
  </outline>
</glyph>
<glyph name="uniFB01" format="1">
  <advance width="1624"/>
  <unicode hex="FB01"/>
  <outline>
    <contour>
      <point x="1500" y="1072" type="line"/>
      <point x="1500" y="299" type="line"/>
      <point x="1584" y="299" type="line"/>
      <point x="1584" y="0" type="line"/>
      <point x="937" y="0" type="line"/>
      <point x="937" y="299" type="line"/>
      <point x="1019" y="299" type="line"/>
      <point x="1019" y="761" type="line"/>
      <point x="626" y="761" type="line"/>
      <point x="626" y="299" type="line"/>
      <point x="736" y="299" type="line"/>
      <point x="736" y="0" type="line"/>
      <point x="56" y="0" type="line"/>
      <point x="56" y="299" type="line"/>
      <point x="140" y="299" type="line"/>
      <point x="140" y="761" type="line"/>
      <point x="56" y="761" type="line"/>
      <point x="56" y="1072" type="line"/>
      <point x="139" y="1072" type="line"/>
      <point x="139" y="1074"/>
      <point x="138" y="1119"/>
      <point x="137" y="1207" type="curve"/>
      <point x="137" y="1476"/>
      <point x="264" y="1610"/>
      <point x="517" y="1610" type="curve" smooth="yes"/>
      <point x="570" y="1610"/>
      <point x="623" y="1606"/>
      <point x="677" y="1597" type="curve" smooth="yes"/>
      <point x="731" y="1588"/>
      <point x="767" y="1581"/>
      <point x="785" y="1576" type="curve" smooth="yes"/>
      <point x="803" y="1571"/>
      <point x="816" y="1567"/>
      <point x="825" y="1564" type="curve"/>
      <point x="825" y="1253" type="line"/>
      <point x="786" y="1262"/>
      <point x="754" y="1266"/>
      <point x="729" y="1266" type="curve" smooth="yes"/>
      <point x="687" y="1266"/>
      <point x="657" y="1252"/>
      <point x="639" y="1224" type="curve" smooth="yes"/>
      <point x="621" y="1196"/>
      <point x="614" y="1146"/>
      <point x="618" y="1074" type="curve"/>
    </contour>
    <contour>
      <point x="1218" y="1137" type="line"/>
      <point x="1299" y="1137"/>
      <point x="1367" y="1159"/>
      <point x="1422" y="1204" type="curve" smooth="yes"/>
      <point x="1477" y="1249"/>
      <point x="1504" y="1310"/>
      <point x="1504" y="1387" type="curve" smooth="yes"/>
      <point x="1504" y="1462"/>
      <point x="1477" y="1522"/>
      <point x="1424" y="1566" type="curve" smooth="yes"/>
      <point x="1371" y="1610"/>
      <point x="1302" y="1632"/>
      <point x="1217" y="1632" type="curve" smooth="yes"/>
      <point x="1136" y="1632"/>
      <point x="1069" y="1610"/>
      <point x="1017" y="1566" type="curve" smooth="yes"/>
      <point x="965" y="1522"/>
      <point x="939" y="1462"/>
      <point x="939" y="1387" type="curve" smooth="yes"/>
      <point x="939" y="1310"/>
      <point x="965" y="1249"/>
      <point x="1018" y="1204" type="curve" smooth="yes"/>
      <point x="1071" y="1159"/>
      <point x="1137" y="1136"/>
      <point x="1216" y="1136" type="curve"/>
    </contour>
  </outline>
</glyph>
